<svg width="130" height="108" viewBox="0 0 130 108" fill="none" xmlns="http://www.w3.org/2000/svg">
<rect x="39.1343" y="24.7753" width="50.1404" height="44.2416" fill="#1B1B1B"/>
<rect x="41.2939" y="25.0256" width="47.3004" height="42.7956" fill="#1E1E1E"/>
<rect y="98.8235" width="9.8577" height="0.98577" fill="#141313"/>
<path d="M12.8111 103.316V95.0359H16.3953C17.1366 95.0359 17.7754 95.1582 18.3116 95.4026C18.8479 95.6392 19.2619 95.9823 19.5537 96.4318C19.8455 96.8813 19.9914 97.4176 19.9914 98.0406C19.9914 98.6557 19.8455 99.188 19.5537 99.6375C19.2619 100.079 18.8479 100.418 18.3116 100.655C17.7754 100.891 17.1366 101.01 16.3953 101.01H13.8757L14.7274 100.17V103.316H12.8111ZM18.0751 103.316L16.0049 100.312H18.0514L20.1452 103.316H18.0751ZM14.7274 100.383L13.8757 99.4837H16.2888C16.8803 99.4837 17.3219 99.3576 17.6137 99.1052C17.9055 98.845 18.0514 98.4901 18.0514 98.0406C18.0514 97.5832 17.9055 97.2283 17.6137 96.9759C17.3219 96.7236 16.8803 96.5974 16.2888 96.5974H13.8757L14.7274 95.6865V100.383ZM25.5316 103.458C24.8771 103.458 24.2699 103.352 23.7099 103.139C23.1579 102.926 22.6768 102.626 22.2668 102.24C21.8646 101.854 21.5491 101.4 21.3204 100.88C21.0996 100.359 20.9892 99.7913 20.9892 99.1762C20.9892 98.5611 21.0996 97.9932 21.3204 97.4728C21.5491 96.9523 21.8685 96.4988 22.2786 96.1124C22.6887 95.726 23.1697 95.4263 23.7218 95.2134C24.2738 95.0005 24.8731 94.894 25.5198 94.894C26.1744 94.894 26.7737 95.0005 27.3179 95.2134C27.8699 95.4263 28.347 95.726 28.7492 96.1124C29.1593 96.4988 29.4787 96.9523 29.7074 97.4728C29.9361 97.9854 30.0504 98.5532 30.0504 99.1762C30.0504 99.7913 29.9361 100.363 29.7074 100.891C29.4787 101.412 29.1593 101.865 28.7492 102.252C28.347 102.63 27.8699 102.926 27.3179 103.139C26.7737 103.352 26.1783 103.458 25.5316 103.458ZM25.5198 101.826C25.8905 101.826 26.2296 101.763 26.5371 101.637C26.8526 101.51 27.1286 101.329 27.3652 101.093C27.6018 100.856 27.7831 100.576 27.9093 100.253C28.0434 99.9293 28.1104 99.5705 28.1104 99.1762C28.1104 98.7819 28.0434 98.423 27.9093 98.0997C27.7831 97.7764 27.6018 97.4964 27.3652 97.2598C27.1365 97.0233 26.8644 96.8419 26.549 96.7157C26.2335 96.5895 25.8905 96.5264 25.5198 96.5264C25.1492 96.5264 24.8061 96.5895 24.4907 96.7157C24.1831 96.8419 23.911 97.0233 23.6744 97.2598C23.4379 97.4964 23.2525 97.7764 23.1185 98.0997C22.9923 98.423 22.9292 98.7819 22.9292 99.1762C22.9292 99.5626 22.9923 99.9214 23.1185 100.253C23.2525 100.576 23.4339 100.856 23.6626 101.093C23.8992 101.329 24.1752 101.51 24.4907 101.637C24.8061 101.763 25.1492 101.826 25.5198 101.826ZM33.7091 103.316L30.1366 95.0359H32.2067L35.3297 102.37H34.1113L37.2815 95.0359H39.186L35.6017 103.316H33.7091ZM41.6399 98.3718H45.6264V99.8623H41.6399V98.3718ZM41.7819 101.779H46.2888V103.316H39.8774V95.0359H46.135V96.5737H41.7819V101.779ZM47.8136 103.316V95.0359H49.7299V101.755H53.882V103.316H47.8136ZM60.018 103.316V96.5974H57.3683V95.0359H64.5841V96.5974H61.9344V103.316H60.018ZM67.3777 98.3718H71.3642V99.8623H67.3777V98.3718ZM67.5197 101.779H72.0266V103.316H65.6152V95.0359H71.8729V96.5737H67.5197V101.779ZM77.5142 103.458C76.8754 103.458 76.28 103.356 75.728 103.151C75.1838 102.938 74.7107 102.638 74.3085 102.252C73.9063 101.865 73.5908 101.412 73.3621 100.891C73.1413 100.371 73.0309 99.7992 73.0309 99.1762C73.0309 98.5532 73.1413 97.9814 73.3621 97.4609C73.5908 96.9404 73.9063 96.487 74.3085 96.1006C74.7186 95.7142 75.1957 95.4184 75.7398 95.2134C76.284 95.0005 76.8794 94.894 77.526 94.894C78.2437 94.894 78.8903 95.0202 79.466 95.2725C80.0496 95.517 80.5385 95.8798 80.9329 96.3608L79.7026 97.4964C79.4187 97.1731 79.1033 96.9326 78.7563 96.7748C78.4093 96.6092 78.0307 96.5264 77.6207 96.5264C77.2342 96.5264 76.8794 96.5895 76.556 96.7157C76.2327 96.8419 75.9527 97.0233 75.7162 97.2598C75.4796 97.4964 75.2942 97.7764 75.1602 98.0997C75.034 98.423 74.9709 98.7819 74.9709 99.1762C74.9709 99.5705 75.034 99.9293 75.1602 100.253C75.2942 100.576 75.4796 100.856 75.7162 101.093C75.9527 101.329 76.2327 101.51 76.556 101.637C76.8794 101.763 77.2342 101.826 77.6207 101.826C78.0307 101.826 78.4093 101.747 78.7563 101.589C79.1033 101.424 79.4187 101.175 79.7026 100.844L80.9329 101.98C80.5385 102.461 80.0496 102.827 79.466 103.08C78.8903 103.332 78.2397 103.458 77.5142 103.458ZM87.905 95.0359H89.8213V103.316H87.905V95.0359ZM84.1433 103.316H82.2269V95.0359H84.1433V103.316ZM88.0469 99.9214H84.0013V98.3008H88.0469V99.9214ZM95.1305 103.316V95.0359H97.0469V101.755H101.199V103.316H95.1305ZM103.211 103.316V96.5974H100.561V95.0359H107.777V96.5974H105.127V103.316H103.211ZM108.808 103.316V95.0359H112.57C113.469 95.0359 114.261 95.2094 114.947 95.5564C115.634 95.8955 116.17 96.3726 116.556 96.9878C116.943 97.6029 117.136 98.3324 117.136 99.1762C117.136 100.012 116.943 100.742 116.556 101.365C116.17 101.98 115.634 102.461 114.947 102.808C114.261 103.147 113.469 103.316 112.57 103.316H108.808ZM110.724 101.743H112.475C113.027 101.743 113.504 101.641 113.906 101.436C114.317 101.223 114.632 100.923 114.853 100.537C115.082 100.15 115.196 99.6967 115.196 99.1762C115.196 98.6478 115.082 98.1943 114.853 97.8158C114.632 97.4294 114.317 97.1337 113.906 96.9286C113.504 96.7157 113.027 96.6092 112.475 96.6092H110.724V101.743Z" fill="#141313"/>
<rect x="119.801" y="98.8235" width="9.8577" height="0.98577" fill="#141313"/>
<mask id="mask0_3534_2977" style="mask-type:alpha" maskUnits="userSpaceOnUse" x="19" y="7" width="92" height="82">
<mask id="path-6-inside-1_3534_2977" fill="white">
<path d="M21.3651 53.2397C20.226 51.2667 19.6565 50.2802 19.4336 49.2314C19.2363 48.3034 19.2363 47.3444 19.4336 46.4164C19.6565 45.3676 20.226 44.3811 21.3652 42.4081L38.5236 12.6889C39.6627 10.7159 40.2322 9.72937 41.029 9.01192C41.7341 8.37711 42.5646 7.89758 43.4669 7.60441C44.4867 7.27307 45.6258 7.27307 47.904 7.27307L82.2208 7.27307C84.499 7.27307 85.6381 7.27307 86.6579 7.60441C87.5602 7.89758 88.3907 8.37711 89.0958 9.01192C89.8926 9.72937 90.4621 10.7159 91.6012 12.6889L108.76 42.4081C109.899 44.3811 110.468 45.3676 110.691 46.4164C110.888 47.3444 110.888 48.3034 110.691 49.2314C110.468 50.2802 109.899 51.2667 108.76 53.2397L91.6012 82.9589C90.4621 84.9319 89.8926 85.9184 89.0958 86.6359C88.3907 87.2707 87.5602 87.7502 86.6579 88.0434C85.6381 88.3747 84.499 88.3747 82.2208 88.3747L47.904 88.3747C45.6258 88.3747 44.4867 88.3747 43.4669 88.0434C42.5646 87.7502 41.7341 87.2707 41.029 86.6359C40.2322 85.9184 39.6627 84.9319 38.5236 82.9589L21.3651 53.2397Z"/>
</mask>
<path d="M38.5236 82.9589L18.981 94.2418L38.5236 82.9589ZM41.029 86.6359L56.1285 69.8662L41.029 86.6359ZM91.6012 82.9589L111.144 94.2418L91.6012 82.9589ZM89.0958 86.6359L104.195 103.406L89.0958 86.6359ZM86.6579 88.0434L93.6311 109.505L86.6579 88.0434ZM108.76 42.4081L89.2171 53.691L108.76 42.4081ZM110.691 46.4164L132.764 41.7247L110.691 46.4164ZM108.76 53.2397L128.302 64.5226L108.76 53.2397ZM110.691 49.2314L88.6185 44.5397L110.691 49.2314ZM86.6579 7.60441L79.6847 29.0658L86.6579 7.60441ZM89.0958 9.01192L104.195 -7.75775L89.0958 9.01192ZM38.5236 12.6889L18.981 1.40595L38.5236 12.6889ZM41.029 9.01192L56.1285 25.7816L41.029 9.01192ZM43.4669 7.60441L36.4937 -13.857L43.4669 7.60441ZM19.4336 46.4164L41.5063 51.1081L19.4336 46.4164ZM19.4336 49.2314L-2.63914 53.9231L19.4336 49.2314ZM40.9077 53.691L58.0661 23.9718L18.981 1.40595L1.82259 31.1252L40.9077 53.691ZM47.904 29.8389L82.2208 29.8389L82.2208 -15.2927L47.904 -15.2927V29.8389ZM72.0587 23.9718L89.2171 53.691L128.302 31.1252L111.144 1.40596L72.0587 23.9718ZM89.2171 41.9568L72.0587 71.676L111.144 94.2418L128.302 64.5226L89.2171 41.9568ZM82.2208 65.8089L47.904 65.8089V110.941L82.2208 110.941V65.8089ZM58.0661 71.676L40.9077 41.9568L1.82258 64.5226L18.981 94.2418L58.0661 71.676ZM47.904 65.8089C47.2966 65.8089 46.941 65.8086 46.6566 65.8053C46.3764 65.802 46.3896 65.7976 46.552 65.8072C46.935 65.83 48.4706 65.9421 50.4401 66.582L36.4937 109.505C41.7196 111.203 47.148 110.941 47.904 110.941V65.8089ZM18.981 94.2418C19.359 94.8966 21.8461 99.7288 25.9296 103.406L56.1285 69.8662C57.6675 71.2519 58.5324 72.5257 58.7436 72.846C58.8331 72.9818 58.8359 72.9955 58.693 72.7545C58.5479 72.5098 58.3698 72.202 58.0661 71.676L18.981 94.2418ZM50.4401 66.582C52.5454 67.2661 54.4835 68.385 56.1285 69.8662L25.9296 103.406C28.9847 106.156 32.5839 108.234 36.4937 109.505L50.4401 66.582ZM72.0587 71.676C71.755 72.202 71.5769 72.5098 71.4318 72.7545C71.2889 72.9955 71.2917 72.9818 71.3812 72.846C71.5924 72.5257 72.4573 71.2519 73.9963 69.8662L104.195 103.406C108.279 99.7288 110.766 94.8966 111.144 94.2418L72.0587 71.676ZM82.2208 110.941C82.9768 110.941 88.4052 111.203 93.6311 109.505L79.6847 66.582C81.6542 65.9421 83.1898 65.83 83.5728 65.8072C83.7352 65.7976 83.7484 65.802 83.4682 65.8053C83.1837 65.8086 82.8282 65.8089 82.2208 65.8089V110.941ZM73.9963 69.8662C75.6413 68.385 77.5794 67.2661 79.6847 66.582L93.6311 109.505C97.5409 108.234 101.14 106.156 104.195 103.406L73.9963 69.8662ZM89.2171 53.691C89.5208 54.217 89.6983 54.5251 89.8376 54.7731C89.9749 55.0174 89.9644 55.0081 89.8916 54.8627C89.7198 54.5197 89.0491 53.1337 88.6185 51.1081L132.764 41.7247C131.621 36.35 128.68 31.7799 128.302 31.1252L89.2171 53.691ZM128.302 64.5226C128.68 63.8679 131.621 59.2978 132.764 53.9231L88.6185 44.5397C89.0491 42.5141 89.7198 41.1281 89.8916 40.7851C89.9644 40.6396 89.9749 40.6304 89.8376 40.8747C89.6983 41.1227 89.5208 41.4308 89.2171 41.9568L128.302 64.5226ZM88.6185 51.1081C88.1583 48.9428 88.1583 46.705 88.6185 44.5397L132.764 53.9231C133.619 49.9019 133.619 45.7459 132.764 41.7247L88.6185 51.1081ZM82.2208 29.8389C82.8282 29.8389 83.1837 29.8392 83.4682 29.8425C83.7484 29.8458 83.7352 29.8502 83.5728 29.8406C83.1898 29.8178 81.6541 29.7057 79.6847 29.0658L93.6311 -13.857C88.4052 -15.5549 82.9768 -15.2927 82.2208 -15.2927L82.2208 29.8389ZM111.144 1.40596C110.766 0.751228 108.279 -4.08102 104.195 -7.75775L73.9963 25.7816C72.4573 24.3959 71.5924 23.122 71.3812 22.8018C71.2917 22.666 71.2889 22.6523 71.4318 22.8933C71.5769 23.138 71.755 23.4458 72.0587 23.9718L111.144 1.40596ZM79.6847 29.0658C77.5794 28.3817 75.6413 27.2628 73.9963 25.7816L104.195 -7.75775C101.14 -10.5086 97.5409 -12.5866 93.6311 -13.857L79.6847 29.0658ZM58.0661 23.9718C58.3698 23.4458 58.5479 23.138 58.693 22.8933C58.8359 22.6523 58.8331 22.666 58.7436 22.8018C58.5324 23.1221 57.6675 24.3959 56.1285 25.7816L25.9296 -7.75775C21.8461 -4.08102 19.359 0.751221 18.981 1.40595L58.0661 23.9718ZM47.904 -15.2927C47.148 -15.2927 41.7196 -15.5549 36.4937 -13.857L50.4401 29.0658C48.4706 29.7057 46.935 29.8178 46.552 29.8406C46.3896 29.8502 46.3764 29.8458 46.6566 29.8425C46.9411 29.8392 47.2966 29.8389 47.904 29.8389V-15.2927ZM56.1285 25.7816C54.4835 27.2628 52.5454 28.3817 50.4401 29.0658L36.4937 -13.857C32.5839 -12.5866 28.9847 -10.5086 25.9296 -7.75775L56.1285 25.7816ZM1.82259 31.1252C1.44458 31.7799 -1.4967 36.35 -2.63914 41.7247L41.5063 51.1081C41.0757 53.1337 40.405 54.5197 40.2332 54.8627C40.1604 55.0081 40.1499 55.0174 40.2872 54.7731C40.4265 54.5251 40.604 54.217 40.9077 53.691L1.82259 31.1252ZM40.9077 41.9568C40.604 41.4308 40.4265 41.1227 40.2872 40.8747C40.1499 40.6304 40.1604 40.6396 40.2332 40.7851C40.405 41.1281 41.0757 42.5141 41.5063 44.5397L-2.63914 53.9231C-1.4967 59.2978 1.44457 63.8679 1.82258 64.5226L40.9077 41.9568ZM-2.63914 41.7247C-3.49387 45.7459 -3.49387 49.9019 -2.63914 53.9231L41.5063 44.5397C41.9665 46.705 41.9665 48.9428 41.5063 51.1081L-2.63914 41.7247Z" fill="#1B1B1B" mask="url(#path-6-inside-1_3534_2977)"/>
</mask>
<g mask="url(#mask0_3534_2977)">
<rect width="91.3915" height="39.383" transform="matrix(0.480485 -0.877003 -0.877003 -0.480485 95.3419 108.552)" fill="url(#paint0_linear_3534_2977)"/>
<rect x="22.7506" y="62.2269" width="91.3915" height="29.8997" fill="url(#paint1_linear_3534_2977)"/>
<rect width="120.449" height="36.2782" transform="matrix(-0.511005 -0.859578 -0.859578 0.511005 78.6295 106.051)" fill="url(#paint2_linear_3534_2977)"/>
<rect x="4.7514" y="63.9103" width="91.3915" height="25.0885" transform="rotate(-61.29 4.7514 63.9103)" fill="url(#paint3_linear_3534_2977)"/>
<rect x="22.6157" y="-1.31909" width="91.3915" height="29.8997" fill="url(#paint4_linear_3534_2977)"/>
<rect width="91.3915" height="32.0987" transform="matrix(-0.532228 -0.846601 -0.846601 0.532228 132.852 60.7386)" fill="url(#paint5_linear_3534_2977)"/>
<path d="M120.266 71.9739L141.174 28.3707L104.622 8.34472L74.8816 64.282L120.266 71.9739Z" fill="url(#paint6_linear_3534_2977)"/>
</g>
<mask id="mask1_3534_2977" style="mask-type:alpha" maskUnits="userSpaceOnUse" x="25" y="12" width="81" height="72">
<path d="M94.589 47.822L79.8256 73.3929L50.2988 73.3929L35.5355 47.822L50.2988 22.2511L79.8256 22.2511L94.589 47.822ZM81.8445 73.3724C81.8446 73.3724 81.8428 73.3725 81.839 73.3728C81.8426 73.3725 81.8444 73.3723 81.8445 73.3724ZM48.2799 73.3724C48.28 73.3723 48.2818 73.3725 48.2854 73.3728C48.2817 73.3725 48.2799 73.3724 48.2799 73.3724ZM51.323 75.1266C51.3251 75.1295 51.3261 75.1311 51.3261 75.1311C51.3261 75.1311 51.3251 75.1296 51.323 75.1266Z" stroke="#1B1B1B" stroke-width="19.7154"/>
</mask>
<g mask="url(#mask1_3534_2977)">
<rect width="79.8473" height="34.4083" transform="matrix(0.480485 -0.877003 -0.877003 -0.480485 93.2418 100.883)" fill="url(#paint7_linear_3534_2977)"/>
<rect x="28.0975" y="63.9161" width="79.8473" height="26.1229" fill="url(#paint8_linear_3534_2977)"/>
<rect width="105.235" height="31.6957" transform="matrix(-0.511005 -0.859578 -0.859578 0.511005 75.1911 101.28)" fill="url(#paint9_linear_3534_2977)"/>
<rect x="11.9411" y="58.0026" width="79.8473" height="21.9194" transform="rotate(-61.29 11.9411 58.0026)" fill="url(#paint10_linear_3534_2977)"/>
<rect x="30.5619" y="2.3031" width="79.8473" height="26.1229" fill="url(#paint11_linear_3534_2977)"/>
<rect width="79.8473" height="28.0442" transform="matrix(-0.532228 -0.846601 -0.846601 0.532228 125.581 56.5198)" fill="url(#paint12_linear_3534_2977)"/>
<path d="M113.859 65.1463L131.607 30.8544L101.431 14.3218L75.4141 63.1749L113.859 65.1463Z" fill="url(#paint13_linear_3534_2977)"/>
</g>
<path d="M44.7236 80.9997L44.064 81.7323L44.7236 80.9997C44.171 80.5021 43.7571 79.8083 42.7287 78.0269L27.7376 52.0617C26.7092 50.2803 26.3152 49.575 26.1606 48.8476C26.017 48.172 26.017 47.4737 26.1606 46.7981C26.3152 46.0708 26.7092 45.3654 27.7376 43.584L42.7287 17.6188C43.7571 15.8375 44.171 15.1436 44.7236 14.646C45.2369 14.1838 45.8416 13.8347 46.4985 13.6212C47.2057 13.3915 48.0136 13.38 50.0705 13.38L80.0526 13.38C82.1095 13.38 82.9174 13.3915 83.6246 13.6212C84.2815 13.8347 84.8862 14.1838 85.3995 14.646C85.9521 15.1436 86.3659 15.8375 87.3944 17.6188L102.385 43.584C103.414 45.3654 103.808 46.0708 103.963 46.7981C104.106 47.4737 104.106 48.172 103.963 48.8476C103.808 49.575 103.414 50.2803 102.385 52.0617L87.3944 78.0269C86.3659 79.8083 85.9521 80.5021 85.3995 80.9997C84.8862 81.4619 84.2815 81.811 83.6246 82.0245C82.9174 82.2542 82.1095 82.2657 80.0526 82.2657L50.0705 82.2657C48.0136 82.2657 47.2057 82.2542 46.4985 82.0245C45.8416 81.811 45.2369 81.4619 44.7236 80.9997Z" stroke="#052139" stroke-width="1.97154"/>
<path d="M50.0235 51.9673V41.6167H54.5039C55.4305 41.6167 56.229 41.7695 56.8993 42.0751C57.5696 42.3708 58.0871 42.7996 58.4519 43.3615C58.8166 43.9234 58.999 44.5937 58.999 45.3725C58.999 46.1414 58.8166 46.8068 58.4519 47.3687C58.0871 47.9207 57.5696 48.3446 56.8993 48.6403C56.229 48.936 55.4305 49.0839 54.5039 49.0839H51.3543L52.419 48.0341V51.9673H50.0235ZM56.6036 51.9673L54.0159 48.2115H56.574L59.1912 51.9673H56.6036ZM52.419 48.3002L51.3543 47.1764H54.3708C55.1101 47.1764 55.6622 47.0187 56.0269 46.7033C56.3916 46.378 56.574 45.9344 56.574 45.3725C56.574 44.8007 56.3916 44.3571 56.0269 44.0417C55.6622 43.7263 55.1101 43.5685 54.3708 43.5685H51.3543L52.419 42.43V48.3002ZM62.8965 51.9673V43.5685H59.5843V41.6167H68.6041V43.5685H65.2919V51.9673H62.8965ZM69.893 51.9673V41.6167H72.2884V50.0155H77.4785V51.9673H69.893Z" fill="#057CC3"/>
<defs>
<linearGradient id="paint0_linear_3534_2977" x1="45.7932" y1="19.6915" x2="45.7285" y2="39.3831" gradientUnits="userSpaceOnUse">
<stop stop-color="#057CC3"/>
<stop offset="1" stop-color="#055381"/>
</linearGradient>
<linearGradient id="paint1_linear_3534_2977" x1="68.5438" y1="77.1768" x2="68.5065" y2="92.1268" gradientUnits="userSpaceOnUse">
<stop stop-color="#057CC3"/>
<stop offset="1" stop-color="#055381"/>
</linearGradient>
<linearGradient id="paint2_linear_3534_2977" x1="21.803" y1="7.08655" x2="71.9403" y2="36.8493" gradientUnits="userSpaceOnUse">
<stop stop-color="#055381"/>
<stop offset="0.458949" stop-color="#057CC3"/>
</linearGradient>
<linearGradient id="paint3_linear_3534_2977" x1="50.5446" y1="76.4545" x2="50.5183" y2="88.9989" gradientUnits="userSpaceOnUse">
<stop stop-color="#057CC3"/>
<stop offset="1" stop-color="#055381"/>
</linearGradient>
<linearGradient id="paint4_linear_3534_2977" x1="68.4089" y1="13.6308" x2="68.3716" y2="28.5808" gradientUnits="userSpaceOnUse">
<stop stop-color="#057CC3"/>
<stop offset="1" stop-color="#055381"/>
</linearGradient>
<linearGradient id="paint5_linear_3534_2977" x1="45.7932" y1="16.0494" x2="45.7502" y2="32.0989" gradientUnits="userSpaceOnUse">
<stop stop-color="#057CC3"/>
<stop offset="1" stop-color="#055381"/>
</linearGradient>
<linearGradient id="paint6_linear_3534_2977" x1="108.858" y1="46.7042" x2="89.3792" y2="36.1669" gradientUnits="userSpaceOnUse">
<stop stop-color="#057CC3"/>
<stop offset="1" stop-color="#055381"/>
</linearGradient>
<linearGradient id="paint7_linear_3534_2977" x1="40.0088" y1="17.2041" x2="39.9523" y2="34.4084" gradientUnits="userSpaceOnUse">
<stop stop-color="#057CC3"/>
<stop offset="1" stop-color="#055381"/>
</linearGradient>
<linearGradient id="paint8_linear_3534_2977" x1="68.1063" y1="76.9776" x2="68.0737" y2="90.0392" gradientUnits="userSpaceOnUse">
<stop stop-color="#057CC3"/>
<stop offset="1" stop-color="#055381"/>
</linearGradient>
<linearGradient id="paint9_linear_3534_2977" x1="19.0489" y1="6.19141" x2="62.8531" y2="32.1947" gradientUnits="userSpaceOnUse">
<stop stop-color="#055381"/>
<stop offset="0.458949" stop-color="#057CC3"/>
</linearGradient>
<linearGradient id="paint10_linear_3534_2977" x1="51.9499" y1="68.9623" x2="51.927" y2="79.9221" gradientUnits="userSpaceOnUse">
<stop stop-color="#057CC3"/>
<stop offset="1" stop-color="#055381"/>
</linearGradient>
<linearGradient id="paint11_linear_3534_2977" x1="70.5707" y1="15.3645" x2="70.5381" y2="28.4261" gradientUnits="userSpaceOnUse">
<stop stop-color="#057CC3"/>
<stop offset="1" stop-color="#055381"/>
</linearGradient>
<linearGradient id="paint12_linear_3534_2977" x1="40.0088" y1="14.0221" x2="39.9712" y2="28.0443" gradientUnits="userSpaceOnUse">
<stop stop-color="#057CC3"/>
<stop offset="1" stop-color="#055381"/>
</linearGradient>
<linearGradient id="paint13_linear_3534_2977" x1="103.651" y1="47.0242" x2="88.1222" y2="38.6144" gradientUnits="userSpaceOnUse">
<stop stop-color="#057CC3"/>
<stop offset="1" stop-color="#055381"/>
</linearGradient>
</defs>
</svg>
