<svg width="170" height="171" viewBox="0 0 170 171" fill="none" xmlns="http://www.w3.org/2000/svg">
<path d="M85 0L158.612 42.75V128.25L85 171L11.3878 128.25V42.75L85 0Z" fill="#C3002F"/>
<path d="M85.5 33L48.7255 46.114L54.3345 94.7385L85.5 112L116.665 94.7385L122.274 46.114L85.5 33Z" fill="#DD0031"/>
<path d="M85.5001 33V41.769V41.7295V81.743V112L116.666 94.7385L122.275 46.114L85.5001 33Z" fill="#C3002F"/>
<path d="M85.5001 41.7295L62.5111 93.277H71.0826L75.7041 81.743H95.2171L99.8386 93.277H108.41L85.5001 41.7295ZM92.2151 74.633H78.7851L85.5001 58.4775L92.2151 74.633Z" fill="white"/>
<path d="M45.308 133L45.154 132.12C45.7113 131.973 46.0487 131.856 46.166 131.768C46.298 131.68 46.4227 131.482 46.54 131.174L51.468 117.556H53.294L58.332 131.526C58.4053 131.746 58.838 131.929 59.63 132.076L59.542 133H54.416L54.284 132.12C55.3107 131.915 55.824 131.673 55.824 131.394C55.824 131.277 55.7947 131.123 55.736 130.932L54.768 128.072H49.07L47.948 131.196C47.8893 131.372 47.86 131.497 47.86 131.57C47.86 131.629 47.904 131.665 47.992 131.68L49.554 132.098L49.466 133H45.308ZM49.488 126.906H54.394L52.238 120.724C52.1353 120.416 52.084 120.203 52.084 120.086H51.864L49.488 126.906ZM60.7723 133L60.6403 132.142C61.3589 131.995 61.7916 131.849 61.9383 131.702C62.0996 131.541 62.1803 131.269 62.1803 130.888V124.552C62.1803 124.171 62.0849 123.907 61.8943 123.76C61.7183 123.599 61.2563 123.445 60.5083 123.298L60.6403 122.594L63.4783 122.308C63.5809 122.308 63.6836 122.513 63.7863 122.924C63.9036 123.335 63.9623 123.694 63.9623 124.002V124.134L64.1383 124.2L64.4023 123.892C65.3263 122.807 66.4556 122.264 67.7903 122.264C68.7289 122.264 69.4696 122.55 70.0123 123.122C70.5549 123.679 70.8263 124.464 70.8263 125.476V131.416C70.8263 131.592 70.8629 131.709 70.9363 131.768C71.0243 131.812 71.1343 131.849 71.2663 131.878L72.3443 132.142L72.2563 133H67.5483L67.4163 132.142C68.0763 132.01 68.4796 131.863 68.6263 131.702C68.7729 131.541 68.8463 131.269 68.8463 130.888V126.136C68.8463 125.447 68.7216 124.897 68.4723 124.486C68.2229 124.061 67.7316 123.848 66.9983 123.848C66.2796 123.848 65.4949 124.134 64.6443 124.706C64.5123 124.794 64.4169 124.86 64.3583 124.904C64.2263 125.051 64.1603 125.322 64.1603 125.718V131.394C64.1603 131.555 64.1823 131.665 64.2263 131.724C64.2849 131.783 64.4096 131.834 64.6003 131.878L65.5683 132.142L65.4803 133H60.7723ZM76.3638 133.528C75.9531 133.983 75.7477 134.474 75.7477 135.002C75.7477 135.53 75.9677 135.948 76.4078 136.256C76.8478 136.564 77.5958 136.718 78.6517 136.718C79.7224 136.718 80.5511 136.498 81.1378 136.058C81.7244 135.618 82.0178 135.178 82.0178 134.738C82.0178 134.298 81.7758 134.027 81.2918 133.924C80.8078 133.836 80.0378 133.785 78.9818 133.77C77.9404 133.755 77.0678 133.675 76.3638 133.528ZM74.4718 131.658C74.4718 131.071 74.6918 130.507 75.1318 129.964C75.4398 129.583 75.7918 129.238 76.1878 128.93C75.9678 128.827 75.7624 128.703 75.5718 128.556C74.8384 127.969 74.4718 127.089 74.4718 125.916C74.4718 124.728 74.8751 123.826 75.6818 123.21C76.4884 122.579 77.4931 122.264 78.6958 122.264C79.7664 122.264 80.6538 122.491 81.3578 122.946C82.3111 122.491 83.2351 122.249 84.1298 122.22C84.2764 122.469 84.3498 122.77 84.3498 123.122C84.3498 123.459 84.3278 123.694 84.2838 123.826C83.7851 123.709 83.2644 123.65 82.7218 123.65C82.5018 123.65 82.3038 123.65 82.1278 123.65C82.5384 124.207 82.7438 124.926 82.7438 125.806C82.7438 126.979 82.3404 127.881 81.5338 128.512C80.7271 129.128 79.7224 129.436 78.5198 129.436C77.8451 129.436 77.2511 129.348 76.7378 129.172C76.2978 129.7 76.0777 130.206 76.0777 130.69C76.0777 131.13 76.3271 131.394 76.8258 131.482C77.2658 131.555 77.7571 131.592 78.2998 131.592C78.8571 131.592 79.2824 131.599 79.5758 131.614C79.8838 131.614 80.2724 131.636 80.7418 131.68C81.2111 131.724 81.5778 131.797 81.8418 131.9C82.1204 132.003 82.4064 132.135 82.6998 132.296C83.2424 132.604 83.5138 133.147 83.5138 133.924C83.5138 134.98 82.9858 135.889 81.9298 136.652C80.8738 137.429 79.4511 137.818 77.6618 137.818C75.2564 137.818 74.0538 137.129 74.0538 135.75C74.0538 135.251 74.1931 134.819 74.4718 134.452C74.7651 134.1 75.1831 133.726 75.7258 133.33C74.8898 133.066 74.4718 132.509 74.4718 131.658ZM78.6738 128.358C80.0378 128.358 80.7198 127.522 80.7198 125.85C80.7198 124.178 79.9938 123.342 78.5418 123.342C77.1778 123.342 76.4958 124.178 76.4958 125.85C76.4958 127.522 77.2218 128.358 78.6738 128.358ZM87.0494 130.272V124.464C87.0494 124.156 86.9321 123.936 86.6974 123.804C86.4627 123.657 86.0227 123.518 85.3774 123.386L85.5094 122.682C87.0787 122.477 88.1714 122.374 88.7874 122.374L89.0294 122.594V129.326C89.0294 130.851 89.6087 131.614 90.7674 131.614C91.5154 131.614 92.2927 131.328 93.0994 130.756C93.2901 130.624 93.4147 130.499 93.4734 130.382C93.5321 130.25 93.5614 130.037 93.5614 129.744V124.464C93.5614 124.156 93.4441 123.936 93.2094 123.804C92.9747 123.657 92.5347 123.518 91.8894 123.386L92.0214 122.682C93.5907 122.477 94.6834 122.374 95.2994 122.374L95.5414 122.594V130.822C95.5414 131.203 95.6294 131.475 95.8054 131.636C95.9961 131.783 96.4654 131.929 97.2134 132.076L97.0814 132.78L94.2434 133.088C94.1407 133.103 94.0307 132.912 93.9134 132.516C93.8107 132.105 93.7594 131.753 93.7594 131.46V131.328L93.5834 131.262L93.3194 131.57C92.3954 132.655 91.2661 133.198 89.9314 133.198C89.0367 133.198 88.3327 132.963 87.8194 132.494C87.3061 132.01 87.0494 131.269 87.0494 130.272ZM98.6027 133L98.4707 132.142C99.1893 131.995 99.622 131.849 99.7687 131.702C99.93 131.541 100.011 131.269 100.011 130.888V118.106C100.011 117.798 99.8933 117.578 99.6587 117.446C99.424 117.299 98.984 117.16 98.3387 117.028L98.4707 116.324C100.04 116.119 101.133 116.016 101.749 116.016L101.991 116.236V131.416C101.991 131.592 102.027 131.709 102.101 131.768C102.189 131.812 102.299 131.849 102.431 131.878L103.509 132.142L103.421 133H98.6027ZM105.307 130.294C105.307 129.194 105.776 128.373 106.715 127.83C107.653 127.287 109.179 127.009 111.291 126.994V126.29C111.291 124.383 110.601 123.43 109.223 123.43C108.563 123.43 108.145 123.525 107.969 123.716C107.807 123.907 107.631 124.53 107.441 125.586L106.253 125.454C106.135 124.999 106.077 124.53 106.077 124.046C106.077 123.547 106.084 123.225 106.099 123.078C106.964 122.535 108.101 122.264 109.509 122.264C110.917 122.264 111.892 122.535 112.435 123.078C112.992 123.621 113.271 124.515 113.271 125.762V130.822C113.271 131.203 113.359 131.475 113.535 131.636C113.725 131.783 114.195 131.929 114.943 132.076L114.811 132.78L112.171 133.066C112.024 133.066 111.87 132.927 111.709 132.648C111.547 132.369 111.467 132.113 111.467 131.878C111.467 131.629 111.474 131.445 111.489 131.328L111.313 131.262L111.049 131.658C110.359 132.685 109.413 133.198 108.211 133.198C107.389 133.198 106.7 132.941 106.143 132.428C105.585 131.915 105.307 131.203 105.307 130.294ZM107.441 130.096C107.441 130.624 107.58 131.027 107.859 131.306C108.137 131.57 108.533 131.702 109.047 131.702C109.56 131.702 110.139 131.453 110.785 130.954C111.122 130.69 111.291 130.411 111.291 130.118V127.962C109.971 127.991 108.995 128.167 108.365 128.49C107.749 128.813 107.441 129.348 107.441 130.096ZM116.521 133L116.389 132.142C117.166 132.01 117.643 131.863 117.819 131.702C117.995 131.541 118.083 131.269 118.083 130.888V124.552C118.083 124.171 117.98 123.899 117.775 123.738C117.584 123.562 117.078 123.415 116.257 123.298L116.389 122.594L119.381 122.308C119.483 122.308 119.593 122.455 119.711 122.748C119.828 123.041 119.887 123.349 119.887 123.672C119.887 123.98 119.857 124.339 119.799 124.75L119.975 124.816L120.261 124.178C120.525 123.591 120.921 123.129 121.449 122.792C121.991 122.44 122.534 122.264 123.077 122.264C123.634 122.264 124.147 122.381 124.617 122.616C124.617 123.819 124.507 125.021 124.287 126.224L123.209 126.334C123.091 125.102 122.974 124.405 122.857 124.244C122.739 124.068 122.541 123.98 122.263 123.98C121.999 123.98 121.683 124.105 121.317 124.354C120.95 124.589 120.649 124.845 120.415 125.124C120.18 125.388 120.063 125.828 120.063 126.444V131.416C120.063 131.607 120.099 131.731 120.173 131.79C120.261 131.834 120.371 131.863 120.503 131.878L122.505 132.142L122.417 133H116.521Z" fill="white"/>
</svg>
