<svg width="170" height="171" viewBox="0 0 170 171" fill="none" xmlns="http://www.w3.org/2000/svg">
<path d="M85 0L158.612 42.75V128.25L85 171L11.3878 128.25V42.75L85 0Z" fill="#2B3362"/>
<path d="M61.792 85.552C61.792 83.888 62.152 82.408 62.872 81.112C63.592 79.8 64.592 78.784 65.872 78.064C67.168 77.328 68.632 76.96 70.264 76.96C72.264 76.96 73.976 77.488 75.4 78.544C76.824 79.6 77.776 81.04 78.256 82.864H73.744C73.408 82.16 72.928 81.624 72.304 81.256C71.696 80.888 71 80.704 70.216 80.704C68.952 80.704 67.928 81.144 67.144 82.024C66.36 82.904 65.968 84.08 65.968 85.552C65.968 87.024 66.36 88.2 67.144 89.08C67.928 89.96 68.952 90.4 70.216 90.4C71 90.4 71.696 90.216 72.304 89.848C72.928 89.48 73.408 88.944 73.744 88.24H78.256C77.776 90.064 76.824 91.504 75.4 92.56C73.976 93.6 72.264 94.12 70.264 94.12C68.632 94.12 67.168 93.76 65.872 93.04C64.592 92.304 63.592 91.288 62.872 89.992C62.152 88.696 61.792 87.216 61.792 85.552ZM86.8653 94.168C85.6333 94.168 84.5293 93.968 83.5533 93.568C82.5773 93.168 81.7933 92.576 81.2013 91.792C80.6253 91.008 80.3213 90.064 80.2893 88.96H84.6573C84.7213 89.584 84.9373 90.064 85.3053 90.4C85.6733 90.72 86.1533 90.88 86.7453 90.88C87.3533 90.88 87.8333 90.744 88.1853 90.472C88.5373 90.184 88.7133 89.792 88.7133 89.296C88.7133 88.88 88.5693 88.536 88.2813 88.264C88.0093 87.992 87.6653 87.768 87.2493 87.592C86.8493 87.416 86.2733 87.216 85.5213 86.992C84.4333 86.656 83.5453 86.32 82.8573 85.984C82.1693 85.648 81.5773 85.152 81.0813 84.496C80.5853 83.84 80.3373 82.984 80.3373 81.928C80.3373 80.36 80.9053 79.136 82.0413 78.256C83.1773 77.36 84.6573 76.912 86.4813 76.912C88.3373 76.912 89.8333 77.36 90.9693 78.256C92.1053 79.136 92.7133 80.368 92.7933 81.952H88.3533C88.3213 81.408 88.1213 80.984 87.7533 80.68C87.3853 80.36 86.9133 80.2 86.3372 80.2C85.8413 80.2 85.4413 80.336 85.1373 80.608C84.8333 80.864 84.6813 81.24 84.6813 81.736C84.6813 82.28 84.9373 82.704 85.4492 83.008C85.9613 83.312 86.7613 83.64 87.8493 83.992C88.9373 84.36 89.8173 84.712 90.4893 85.048C91.1773 85.384 91.7693 85.872 92.2653 86.512C92.7613 87.152 93.0093 87.976 93.0093 88.984C93.0093 89.944 92.7613 90.816 92.2653 91.6C91.7853 92.384 91.0813 93.008 90.1533 93.472C89.2253 93.936 88.1293 94.168 86.8653 94.168ZM101.631 94.168C100.399 94.168 99.2949 93.968 98.3189 93.568C97.3429 93.168 96.5589 92.576 95.9669 91.792C95.3909 91.008 95.0869 90.064 95.0549 88.96H99.4229C99.4869 89.584 99.7029 90.064 100.071 90.4C100.439 90.72 100.919 90.88 101.511 90.88C102.119 90.88 102.599 90.744 102.951 90.472C103.303 90.184 103.479 89.792 103.479 89.296C103.479 88.88 103.335 88.536 103.047 88.264C102.775 87.992 102.431 87.768 102.015 87.592C101.615 87.416 101.039 87.216 100.287 86.992C99.1989 86.656 98.3109 86.32 97.6229 85.984C96.9349 85.648 96.3429 85.152 95.8469 84.496C95.3509 83.84 95.1029 82.984 95.1029 81.928C95.1029 80.36 95.6709 79.136 96.8069 78.256C97.9429 77.36 99.4229 76.912 101.247 76.912C103.103 76.912 104.599 77.36 105.735 78.256C106.871 79.136 107.479 80.368 107.559 81.952H103.119C103.087 81.408 102.887 80.984 102.519 80.68C102.151 80.36 101.679 80.2 101.103 80.2C100.607 80.2 100.207 80.336 99.9029 80.608C99.5989 80.864 99.4469 81.24 99.4469 81.736C99.4469 82.28 99.7029 82.704 100.215 83.008C100.727 83.312 101.527 83.64 102.615 83.992C103.703 84.36 104.583 84.712 105.255 85.048C105.943 85.384 106.535 85.872 107.031 86.512C107.527 87.152 107.775 87.976 107.775 88.984C107.775 89.944 107.527 90.816 107.031 91.6C106.551 92.384 105.847 93.008 104.919 93.472C103.991 93.936 102.895 94.168 101.631 94.168Z" fill="white"/>
</svg>
