<svg width="101" height="100" viewBox="0 0 101 100" fill="none" xmlns="http://www.w3.org/2000/svg">
<path d="M58.8334 76.3122C54.263 74.1353 50.3341 70.8122 47.4292 66.6663H13V16.6663H88V26.0997C91.3761 28.4674 94.2155 31.5198 96.3334 35.058V16.6663C96.3268 14.4582 95.4467 12.3424 93.8853 10.7811C92.3239 9.21969 90.2081 8.3396 88 8.33301H13C10.7919 8.3396 8.67612 9.21969 7.11475 10.7811C5.55337 12.3424 4.67328 14.4582 4.66669 16.6663V66.6663C4.67328 68.8745 5.55337 70.9902 7.11475 72.5516C8.67612 74.113 10.7919 74.9931 13 74.9997H42.1667V83.333H33.8334V91.6664H67.1667V83.333H58.8334V76.3122Z" fill="#084A0F"/>
<path d="M71.3333 25C66.3888 25 61.5553 26.4662 57.4441 29.2133C53.3328 31.9603 50.1285 35.8648 48.2363 40.4329C46.3441 45.0011 45.8491 50.0277 46.8137 54.8773C47.7783 59.7268 50.1593 64.1814 53.6557 67.6777C57.152 71.174 61.6065 73.555 66.4561 74.5196C71.3056 75.4843 76.3323 74.9892 80.9004 73.097C85.4686 71.2048 89.373 68.0005 92.1201 63.8893C94.8671 59.778 96.3333 54.9445 96.3333 50C96.3344 46.7166 95.6885 43.4653 94.4325 40.4316C93.1766 37.398 91.3351 34.6416 89.0134 32.3199C86.6917 29.9982 83.9353 28.1568 80.9017 26.9008C77.8681 25.6448 74.6167 24.9989 71.3333 25ZM71.3333 66.6667C68.037 66.6667 64.8146 65.6892 62.0738 63.8578C59.333 62.0265 57.1968 59.4235 55.9353 56.3781C54.6739 53.3326 54.3438 49.9815 54.9869 46.7485C55.63 43.5155 57.2173 40.5458 59.5482 38.2149C61.8791 35.884 64.8488 34.2967 68.0818 33.6536C71.3148 33.0105 74.6659 33.3405 77.7114 34.602C80.7568 35.8635 83.3598 37.9997 85.1911 40.7405C87.0225 43.4813 88 46.7036 88 50C87.9945 54.4186 86.2368 58.6546 83.1123 61.779C79.9879 64.9034 75.7519 66.6612 71.3333 66.6667Z" fill="black"/>
<path d="M71.3334 54.1663C73.6345 54.1663 75.5 52.3009 75.5 49.9997C75.5 47.6985 73.6345 45.833 71.3334 45.833C69.0322 45.833 67.1667 47.6985 67.1667 49.9997C67.1667 52.3009 69.0322 54.1663 71.3334 54.1663Z" fill="black"/>
<circle cx="71" cy="48.5" r="27.5" fill="#C6F0CA"/>
<path d="M67.2711 28.7695C64.8975 28.7695 62.5773 29.4734 60.6037 30.7921C58.6302 32.1107 57.092 33.985 56.1837 36.1779C55.2753 38.3708 55.0377 40.7838 55.5007 43.1117C55.9638 45.4397 57.1068 47.578 58.7851 49.2564C60.4635 50.9348 62.6019 52.0777 64.9298 52.5408C67.2578 53.0039 69.6708 52.7662 71.8636 51.8579C74.0565 50.9496 75.9308 49.4114 77.2495 47.4378C78.5682 45.4643 79.272 43.144 79.272 40.7705C79.2687 37.5887 78.0032 34.5381 75.7533 32.2882C73.5034 30.0384 70.4529 28.7729 67.2711 28.7695ZM68.1942 33.3137L71.0548 31.3463C72.6927 32.006 74.1312 33.0796 75.2298 34.4619L74.3066 37.5706C74.2836 37.5706 74.2593 37.5821 74.2362 37.5902L71.603 38.4453C71.5634 38.4579 71.5249 38.4733 71.4876 38.4914L68.1942 36.2263V33.3137ZM63.4908 31.3463L66.3479 33.3137V36.2263L63.0523 38.4961C63.015 38.478 62.9764 38.4625 62.9369 38.4499L60.3036 37.5948C60.2805 37.5868 60.2563 37.581 60.2332 37.5752L59.3101 34.4665C60.4097 33.0817 61.8504 32.0065 63.4908 31.3463ZM61.9907 46.2424H58.7204C57.7631 44.7541 57.2143 43.04 57.1291 41.2724L59.6678 39.3246C59.6896 39.3342 59.712 39.3427 59.7347 39.35L62.3692 40.2062C62.4044 40.2168 62.4402 40.2253 62.4765 40.2316L63.7216 43.8572C63.7043 43.878 63.687 43.8988 63.6708 43.9207L62.0438 46.1605C62.0246 46.1868 62.0069 46.2142 61.9907 46.2424ZM69.8894 50.5789C68.1737 51.0359 66.3684 51.0359 64.6528 50.5789L63.4919 47.3017C63.5069 47.2833 63.5231 47.266 63.5369 47.2464L65.1651 45.0054C65.1843 44.9795 65.202 44.9525 65.2182 44.9246H69.3239C69.3401 44.9525 69.3579 44.9795 69.377 45.0054L71.0052 47.2464C71.0191 47.266 71.0352 47.2833 71.0502 47.3017L69.8894 50.5789ZM72.5515 46.239C72.5353 46.2107 72.5176 46.1834 72.4984 46.157L70.8702 43.9207C70.8541 43.8988 70.8367 43.878 70.8194 43.8572L72.0645 40.2316C72.1008 40.2253 72.1366 40.2168 72.1718 40.2062L74.8063 39.35C74.829 39.3427 74.8514 39.3342 74.8732 39.3246L77.4119 41.2724C77.3267 43.04 76.7779 44.7541 75.8206 46.2424L72.5515 46.239Z" fill="#084A0F"/>
<path fill-rule="evenodd" clip-rule="evenodd" d="M77.8152 60.9865C76.7238 60.335 75.8177 59.4143 75.1838 58.3125C74.5473 57.2134 74.2033 55.9695 74.1844 54.6996L74.2927 54.7205C76.4935 55.1541 78.9974 54.3705 81.055 53.107C81.3259 52.9405 81.5916 52.7652 81.8498 52.5801C82.158 52.9652 82.4342 53.3562 82.6558 53.7413C82.9357 54.2242 83.1879 54.7989 83.4133 55.4131C83.0267 55.5996 82.6506 55.8056 82.2879 56.0265C80.2042 57.2945 78.4265 59.1431 77.816 60.985V60.9865H77.8152ZM84.8268 61.3336C83.8922 61.7742 82.8761 62.0157 81.8431 62.0427C80.8102 62.0697 79.7829 61.8816 78.8265 61.4903L78.878 61.338C79.3728 59.8439 80.908 58.1759 82.8693 56.9826C83.1633 56.8034 83.4648 56.637 83.7693 56.4848C83.9574 57.1042 84.1208 57.7319 84.2581 58.3222C84.4645 59.2104 84.6385 60.1058 84.7798 61.0067L84.7858 61.0462L84.7873 61.0552V61.0582L84.8268 61.3336Z" fill="#084A0F"/>
<path d="M84.8018 56.032C86.2101 55.4946 87.646 55.2887 88.8894 55.5618L89.0416 55.5954C88.9509 56.2554 88.7727 56.9004 88.5117 57.5134C87.9571 58.8173 87.0408 59.9352 85.8713 60.7352L85.8616 60.6763C85.7205 59.8015 85.5495 58.9318 85.3489 58.0687C85.1906 57.3833 85.0082 56.7045 84.8018 56.032ZM82.7323 51.893C84.0219 50.7966 85.0362 49.4973 85.4728 48.1995L85.4802 48.1771C86.5713 48.8285 87.4771 49.7489 88.111 50.8504C88.7478 51.9496 89.0921 53.1938 89.111 54.464C87.6221 54.1423 85.987 54.3894 84.4421 54.9715C84.2033 54.3267 83.9309 53.7117 83.6257 53.1826C83.3604 52.7311 83.0617 52.3 82.7323 51.893ZM78.9008 48.2039C78.7528 48.0867 78.6035 47.971 78.453 47.8569L78.4358 47.845C79.712 47.2341 81.1361 47.0005 82.5405 47.1718C83.2025 47.2516 83.8518 47.4203 84.469 47.6718L84.4115 47.8427C84.0555 48.901 83.1801 50.0443 82.0024 51.0444C81.4806 50.481 80.9319 49.943 80.3583 49.4324C79.8854 49.0079 79.3995 48.598 78.9015 48.2032L78.9008 48.2039ZM80.4688 52.1542C78.5388 53.3393 76.3267 53.9819 74.508 53.6236L74.2527 53.5729C74.3915 52.5504 74.7411 51.5678 75.2794 50.6874C75.8176 49.807 76.5329 49.048 77.3798 48.4584L77.6246 48.6368L77.6261 48.6375L77.6335 48.6428L77.6626 48.6644L77.7776 48.7502C78.4083 49.2308 79.0198 49.7362 79.6105 50.2652C80.1031 50.7071 80.624 51.2056 81.1128 51.7317C80.9039 51.8773 80.6897 52.0191 80.4688 52.1542Z" fill="#084A0F"/>
<path d="M71.6241 64.1786L72.6913 63.1114L71.6241 62.0442L68.9597 64.7085L62.5639 58.3126L65.2282 55.6483L64.161 54.5811L63.0937 55.6483L62.0265 54.5811L60.4294 56.1782L59.3622 55.1109L58.295 56.1782L59.3622 57.2454L57.7651 58.8425L58.8323 59.9097L57.7651 60.9769L58.8323 62.0442L61.4966 59.3798L67.8925 65.7757L65.2282 68.44L66.2954 69.5073L67.3626 68.44L68.4298 69.5073L70.027 67.9102L71.0942 68.9774L72.1614 67.9102L71.0942 66.8429L72.6913 65.2458L71.6241 64.1786Z" fill="#084A0F"/>
</svg>
