<svg width="125" height="101" viewBox="0 0 125 101" fill="none" xmlns="http://www.w3.org/2000/svg">
<g clip-path="url(#clip0_3534_2162)">
<path d="M116.667 73.4167V10.9167C116.667 10.3524 116.461 9.86415 116.048 9.45182C115.636 9.0395 115.148 8.83333 114.583 8.83333H10.4167C9.85243 8.83333 9.36415 9.0395 8.95182 9.45182C8.5395 9.86415 8.33333 10.3524 8.33333 10.9167V73.4167C8.33333 73.9809 8.5395 74.4692 8.95182 74.8815C9.36415 75.2938 9.85243 75.5 10.4167 75.5H114.583C115.148 75.5 115.636 75.2938 116.048 74.8815C116.461 74.4692 116.667 73.9809 116.667 73.4167ZM125 10.9167V73.4167C125 76.2812 123.98 78.7335 121.94 80.7734C119.9 82.8134 117.448 83.8333 114.583 83.8333H66.6667V92.1667H89.5833C90.191 92.1667 90.6901 92.362 91.0807 92.7526C91.4714 93.1432 91.6667 93.6424 91.6667 94.25V98.4167C91.6667 99.0243 91.4714 99.5234 91.0807 99.9141C90.6901 100.305 90.191 100.5 89.5833 100.5H35.4167C34.809 100.5 34.3099 100.305 33.9193 99.9141C33.5286 99.5234 33.3333 99.0243 33.3333 98.4167V94.25C33.3333 93.6424 33.5286 93.1432 33.9193 92.7526C34.3099 92.362 34.809 92.1667 35.4167 92.1667H58.3333V83.8333H10.4167C7.55208 83.8333 5.09983 82.8134 3.0599 80.7734C1.01997 78.7335 0 76.2812 0 73.4167V10.9167C0 8.05208 1.01997 5.59983 3.0599 3.5599C5.09983 1.51997 7.55208 0.5 10.4167 0.5H114.583C117.448 0.5 119.9 1.51997 121.94 3.5599C123.98 5.59983 125 8.05208 125 10.9167Z" fill="#077975"/>
<path d="M89.5297 48.8215C90.158 48.8215 90.7606 49.0711 91.2049 49.5154C91.6492 49.9597 91.8988 50.5623 91.8988 51.1906C91.8988 51.8189 91.6492 52.4215 91.2049 52.8657C90.7606 53.31 90.158 53.5596 89.5297 53.5596C88.9014 53.5596 88.2988 53.31 87.8545 52.8657C87.4103 52.4215 87.1607 51.8189 87.1607 51.1906C87.1607 49.8757 88.2149 48.8215 89.5297 48.8215ZM70.5773 29.8691H74.4507L75.5642 32.2382H93.0833C93.3974 32.2382 93.6987 32.363 93.9209 32.5851C94.143 32.8073 94.2678 33.1086 94.2678 33.4227C94.2678 33.6241 94.2086 33.8255 94.1257 34.015L89.8851 41.6788C89.4823 42.4014 88.7005 42.8989 87.8122 42.8989H78.9875L77.9214 44.8297L77.8858 44.9718C77.8858 45.0504 77.917 45.1257 77.9726 45.1812C78.0281 45.2368 78.1034 45.268 78.182 45.268H91.8988V47.637H77.6845C77.0562 47.637 76.4536 47.3874 76.0093 46.9431C75.565 46.4988 75.3154 45.8963 75.3154 45.268C75.3154 44.8534 75.422 44.4625 75.5997 44.1308L77.2107 41.2287L72.9464 32.2382H70.5773V29.8691ZM77.6845 48.8215C78.3128 48.8215 78.9154 49.0711 79.3596 49.5154C79.8039 49.9597 80.0535 50.5623 80.0535 51.1906C80.0535 51.8189 79.8039 52.4215 79.3596 52.8657C78.9154 53.31 78.3128 53.5596 77.6845 53.5596C77.0562 53.5596 76.4536 53.31 76.0093 52.8657C75.565 52.4215 75.3154 51.8189 75.3154 51.1906C75.3154 49.8757 76.3697 48.8215 77.6845 48.8215ZM88.3452 40.5299L91.6382 34.6072H76.6658L79.4613 40.5299H88.3452Z" fill="#077975"/>
<g clip-path="url(#clip1_3534_2162)">
<path d="M50.4403 48.2293C50.8966 48.2296 51.3353 48.4053 51.6655 48.7202C51.9958 49.0351 52.1922 49.465 52.2141 49.9207C52.2361 50.3765 52.0818 50.8232 51.7833 51.1684C51.4848 51.5135 51.065 51.7306 50.6109 51.7746L50.4403 51.7829H31.4879C31.0316 51.7827 30.5929 51.6069 30.2627 51.292C29.9324 50.9771 29.736 50.5473 29.7141 50.0915C29.6921 49.6357 29.8464 49.189 30.1449 48.8439C30.4433 48.4987 30.8632 48.2817 31.3173 48.2376L31.4879 48.2293H50.4403ZM50.4403 39.9377C50.9115 39.9377 51.3634 40.1249 51.6967 40.4581C52.0299 40.7913 52.2171 41.2432 52.2171 41.7144C52.2171 42.1857 52.0299 42.6376 51.6967 42.9708C51.3634 43.304 50.9115 43.4912 50.4403 43.4912H31.4879C31.0167 43.4912 30.5647 43.304 30.2315 42.9708C29.8983 42.6376 29.7111 42.1857 29.7111 41.7144C29.7111 41.2432 29.8983 40.7913 30.2315 40.4581C30.5647 40.1249 31.0167 39.9377 31.4879 39.9377H50.4403ZM50.4403 31.646C50.9115 31.646 51.3634 31.8332 51.6967 32.1664C52.0299 32.4996 52.2171 32.9515 52.2171 33.4228C52.2171 33.894 52.0299 34.3459 51.6967 34.6792C51.3634 35.0124 50.9115 35.1996 50.4403 35.1996H31.4879C31.0167 35.1996 30.5647 35.0124 30.2315 34.6792C29.8983 34.3459 29.7111 33.894 29.7111 33.4228C29.7111 32.9515 29.8983 32.4996 30.2315 32.1664C30.5647 31.8332 31.0167 31.646 31.4879 31.646H50.4403Z" fill="#077975"/>
</g>
</g>
<defs>
<clipPath id="clip0_3534_2162">
<rect width="125" height="100" fill="white" transform="translate(0 0.5)"/>
</clipPath>
<clipPath id="clip1_3534_2162">
<rect width="28.4286" height="28.4286" fill="white" transform="translate(26.75 27.5)"/>
</clipPath>
</defs>
</svg>
