<svg width="170" height="171" viewBox="0 0 170 171" fill="none" xmlns="http://www.w3.org/2000/svg">
<path d="M85 0L158.612 42.75V128.25L85 171L11.3878 128.25V42.75L85 0Z" fill="#222222"/>
<path d="M68.08 77.152V94H63.976V87.064H57.592V94H53.488V77.152H57.592V83.752H63.976V77.152H68.08ZM83.1627 77.152V80.44H78.6987V94H74.5947V80.44H70.1307V77.152H83.1627ZM104.302 77.152V94H100.198V83.896L96.4304 94H93.1184L89.3264 83.872V94H85.2224V77.152H90.0704L94.7984 88.816L99.4784 77.152H104.302ZM111.358 90.832H116.734V94H107.254V77.152H111.358V90.832Z" fill="white"/>
</svg>
