<svg width="100" height="100" viewBox="0 0 100 100" fill="none" xmlns="http://www.w3.org/2000/svg">
<path d="M33.3333 49.9997C44.8396 49.9997 54.1667 40.6726 54.1667 29.1663C54.1667 17.6601 44.8396 8.33301 33.3333 8.33301C21.8271 8.33301 12.5 17.6601 12.5 29.1663C12.5 40.6726 21.8271 49.9997 33.3333 49.9997Z" stroke="#57074F" stroke-width="6" stroke-linejoin="round"/>
<path d="M54.1667 31.6709C54.1958 31.7001 64.0062 44.0376 83.5958 68.6792C83.9276 69.0787 84.0983 69.5876 84.0744 70.1063C84.0505 70.6251 83.8338 71.1162 83.4667 71.4834L74.9583 79.9917C74.5911 80.3589 74.1 80.5756 73.5813 80.5995C73.0625 80.6234 72.5536 80.4527 72.1542 80.1209L37.1292 50.0001M55.1458 50.9792L61.0396 56.873" stroke="#57074F" stroke-width="6" stroke-linecap="round" stroke-linejoin="round"/>
<path d="M35.4167 91.8451C39.4104 86.6409 44.2646 84.0389 49.9792 84.0389C58.5542 84.0389 68.6729 94.8097 77.3042 93.3285C85.9375 91.8451 88.4083 83.3326 83.0958 78.6201" stroke="#57074F" stroke-width="6" stroke-linecap="round" stroke-linejoin="round"/>
</svg>
