<svg width="100" height="101" viewBox="0 0 100 101" fill="none" xmlns="http://www.w3.org/2000/svg">
<path d="M75 83.8333L90.9333 67.9C91.4023 67.4316 91.6661 66.7961 91.6667 66.1333V44.25C91.6667 42.5924 91.0082 41.0027 89.8361 39.8306C88.664 38.6585 87.0743 38 85.4167 38C83.7591 38 82.1694 38.6585 80.9973 39.8306C79.8251 41.0027 79.1667 42.5924 79.1667 44.25V63" stroke="#AB1919" stroke-width="6" stroke-linecap="round" stroke-linejoin="round"/>
<path d="M75 67.1667L78.575 63.5917C78.7628 63.4041 78.9118 63.1813 79.0133 62.9361C79.1148 62.6908 79.1669 62.4279 79.1667 62.1625C79.1661 61.7878 79.0613 61.4207 78.8641 61.1021C78.667 60.7835 78.3851 60.526 78.05 60.3583L76.2041 59.4375C74.6404 58.6556 72.8702 58.3854 71.1444 58.665C69.4185 58.9447 67.8243 59.7601 66.5875 60.9958L62.8583 64.725C61.2954 66.2874 60.4171 68.4067 60.4167 70.6167V83.8333M25 83.8333L9.06665 67.9C8.59767 67.4316 8.3339 66.7961 8.33331 66.1333V44.25C8.33331 42.5924 8.99179 41.0027 10.1639 39.8306C11.336 38.6585 12.9257 38 14.5833 38C16.2409 38 17.8306 38.6585 19.0027 39.8306C20.1748 41.0027 20.8333 42.5924 20.8333 44.25V63" stroke="#AB1919" stroke-width="6" stroke-linecap="round" stroke-linejoin="round"/>
<path d="M25 67.1665L21.425 63.5915C21.2373 63.4038 21.0885 63.181 20.987 62.9358C20.8855 62.6906 20.8333 62.4277 20.8333 62.1623C20.8333 61.3998 21.2666 60.704 21.95 60.3582L23.7958 59.4373C25.3596 58.6554 27.1297 58.3852 28.8556 58.6649C30.5814 58.9445 32.1756 59.7599 33.4125 60.9957L37.1416 64.7248C38.7046 66.2873 39.5828 68.4065 39.5833 70.6165V83.8332M56.9458 50.4998H43.0541V40.779H33.3333V26.8873H43.0541V17.1665H56.9458V26.8873H66.6666V40.779H56.9458V50.4998Z" stroke="#AB1919" stroke-width="6" stroke-linecap="round" stroke-linejoin="round"/>
</svg>
