<svg width="100" height="100" viewBox="0 0 100 100" fill="none" xmlns="http://www.w3.org/2000/svg">
<path d="M48.9584 76.6668H51.9793V73.3335C53.9237 73.0557 55.5737 72.2571 56.9292 70.9377C58.2848 69.6182 58.9612 67.9168 58.9584 65.8335C58.9584 64.0279 58.264 62.5168 56.8751 61.3002C55.4862 60.0835 53.889 59.0946 52.0834 58.3335V50.6252C52.7779 50.8335 53.3515 51.1807 53.8042 51.6668C54.257 52.1529 54.5862 52.7432 54.7917 53.4377L58.5418 51.8752C58.0556 50.4168 57.2223 49.2543 56.0417 48.3877C54.8612 47.521 53.5418 46.9474 52.0834 46.6668V43.3335H48.9584V46.5627C47.014 46.771 45.364 47.4835 44.0084 48.7002C42.6529 49.9168 41.9765 51.5307 41.9792 53.5418C41.9792 55.4168 42.6918 56.9793 44.1168 58.2293C45.5418 59.4793 47.1556 60.4863 48.9584 61.2502V69.4793C47.8473 69.1321 46.9098 68.5418 46.1459 67.7085C45.382 66.8752 44.8612 65.9029 44.5834 64.7918L40.9376 66.3543C41.4931 68.2988 42.4654 69.896 43.8542 71.146C45.2431 72.396 46.9445 73.1599 48.9584 73.4377V76.6668ZM52.0834 69.3752V62.5002C52.8473 62.8474 53.5251 63.264 54.1167 63.7502C54.7084 64.2363 55.0029 64.9654 55.0001 65.9377C55.0001 67.0488 54.7223 67.8307 54.1668 68.2835C53.6112 68.7363 52.9168 69.1002 52.0834 69.3752ZM48.9584 56.9793C48.1945 56.6321 47.5001 56.2154 46.8751 55.7293C46.2501 55.2432 45.9376 54.5141 45.9376 53.5418C45.9376 52.5696 46.2501 51.8571 46.8751 51.4043C47.5001 50.9516 48.1945 50.6571 48.9584 50.521V56.9793ZM33.3334 89.1668C25.2084 89.1668 18.3154 86.3363 12.6542 80.6752C6.99314 75.0141 4.16397 68.1224 4.16675 60.0002C4.16675 51.8752 6.99731 44.9821 12.6584 39.321C18.3195 33.6599 25.2112 30.8307 33.3334 30.8335H66.6667C74.7917 30.8335 81.6848 33.6641 87.3459 39.3252C93.007 44.9863 95.8362 51.8779 95.8334 60.0002C95.8334 68.1252 93.0029 75.0182 87.3417 80.6793C81.6806 86.3404 74.789 89.1696 66.6667 89.1668H33.3334ZM33.3334 80.8335H66.6667C72.4306 80.8335 77.3445 78.8016 81.4084 74.7377C85.4723 70.6738 87.5029 65.7613 87.5001 60.0002C87.5001 54.2363 85.4681 49.3224 81.4043 45.2585C77.3404 41.1946 72.4279 39.1641 66.6667 39.1668H33.3334C27.5695 39.1668 22.6556 41.1988 18.5917 45.2627C14.5279 49.3266 12.4973 54.2391 12.5001 60.0002C12.5001 65.7641 14.532 70.6779 18.5959 74.7418C22.6598 78.8057 27.5723 80.8363 33.3334 80.8335Z" fill="#1B8212"/>
</svg>
