<svg width="114" height="114" viewBox="0 0 114 114" fill="none" xmlns="http://www.w3.org/2000/svg">
<g clip-path="url(#clip0_3534_2043)">
<path d="M40.6851 25C41.6321 25 42.4793 25.5895 42.7982 26.4721L45.0724 32.776C45.8874 32.9789 46.5864 33.1819 47.1791 33.3945C47.8265 33.6264 48.6608 33.9775 49.6916 34.4575L54.9873 31.655C55.4195 31.426 55.9144 31.3434 56.3976 31.4194C56.8808 31.4955 57.3264 31.7263 57.6673 32.077L62.3252 36.8927C62.9437 37.5337 63.1176 38.4711 62.7697 39.2893L60.2862 45.11C60.6985 45.867 61.0271 46.5145 61.2783 47.0556C61.5489 47.6451 61.8839 48.4569 62.2833 49.5038L68.0718 51.9841C68.9416 52.3545 69.4795 53.2243 69.4215 54.1552L68.9963 60.8392C68.9673 61.2734 68.8114 61.6896 68.548 62.036C68.2845 62.3825 67.9252 62.6439 67.5146 62.788L62.0321 64.7369C61.8742 65.4939 61.71 66.1413 61.536 66.6889C61.2554 67.5346 60.9351 68.3666 60.5761 69.1821L63.3302 75.2702C63.5246 75.698 63.5769 76.1768 63.4796 76.6364C63.3822 77.0961 63.1402 77.5125 62.7891 77.8247L57.5514 82.5019C57.2064 82.8086 56.776 83.0026 56.3177 83.0578C55.8595 83.1131 55.3952 83.027 54.9873 82.8111L49.5885 79.9507C48.7439 80.3979 47.8725 80.7927 46.9793 81.1328L44.6214 82.0155L42.5276 87.8136C42.3725 88.2383 42.0926 88.606 41.7247 88.8688C41.3568 89.1315 40.918 89.2768 40.4661 89.2857L34.3458 89.4242C33.8818 89.4364 33.4254 89.3045 33.0395 89.0466C32.6536 88.7888 32.3571 88.4177 32.1908 87.9844L29.7233 81.455C28.8814 81.1672 28.0479 80.8557 27.2237 80.5208C26.5495 80.229 25.8855 79.9142 25.2329 79.577L19.1126 82.1926C18.7094 82.3647 18.2648 82.4158 17.833 82.3397C17.4012 82.2636 17.0008 82.0637 16.6806 81.7642L12.1516 77.5154C11.8144 77.2005 11.5848 76.7875 11.4952 76.3348C11.4056 75.8822 11.4605 75.4129 11.6523 74.9932L14.284 69.2595C13.934 68.5803 13.6095 67.8884 13.3112 67.185C12.963 66.3241 12.6408 65.4529 12.3449 64.5726L6.57891 62.817C6.11022 62.6754 5.70143 62.3829 5.41602 61.9851C5.1306 61.5873 4.98454 61.1063 5.00051 60.6169L5.226 54.429C5.24205 54.0253 5.36817 53.6336 5.59073 53.2963C5.81329 52.9591 6.12381 52.6891 6.48871 52.5156L12.5381 49.6101C12.8184 48.5825 13.0632 47.7836 13.279 47.2006C13.5829 46.4219 13.9204 45.6566 14.2905 44.9071L11.6684 39.3666C11.4694 38.9459 11.409 38.4728 11.4958 38.0156C11.5826 37.5583 11.8122 37.1404 12.1516 36.8219L16.6742 32.5505C16.9912 32.2515 17.3879 32.0505 17.8165 31.9716C18.2451 31.8927 18.6874 31.9394 19.0901 32.106L25.204 34.6314C25.8804 34.1805 26.4924 33.8165 27.0465 33.5233C27.7068 33.1722 28.5895 32.805 29.7008 32.4088L31.8268 26.4785C31.9839 26.0445 32.2712 25.6696 32.6494 25.405C33.0276 25.1404 33.4783 24.9989 33.9399 25H40.6851ZM37.2899 47.6097C31.9202 47.6097 27.5683 51.91 27.5683 57.2186C27.5683 62.5271 31.9202 66.8307 37.2899 66.8307C42.6565 66.8307 47.0083 62.5271 47.0083 57.2186C47.0083 51.91 42.6597 47.6097 37.2899 47.6097Z" fill="#CB2DA8"/>
<circle cx="52.9254" cy="57.212" r="26.7125" fill="white"/>
</g>
<path d="M85.6867 38.3561C85.6867 42.1301 82.6272 45.1896 78.8532 45.1896C75.0792 45.1896 72.0198 42.1301 72.0198 38.3561C72.0198 34.5821 75.0792 31.5227 78.8532 31.5227C82.6272 31.5227 85.6867 34.5821 85.6867 38.3561Z" fill="white" stroke="#CB2DA8" stroke-width="3.6177"/>
<path d="M41.9264 45.8202H55.6755L72.5672 39.9277" stroke="#CB2DA8" stroke-width="4.8236"/>
<path d="M85.6867 78.4251C85.6867 74.6511 82.6273 71.5917 78.8533 71.5917C75.0793 71.5917 72.0199 74.6511 72.0199 78.4251C72.0199 82.1991 75.0793 85.2585 78.8533 85.2585C82.6273 85.2585 85.6867 82.1991 85.6867 78.4251Z" fill="white" stroke="#CB2DA8" stroke-width="3.6177"/>
<path d="M41.9265 70.9611H55.6755L72.5672 76.8535" stroke="#CB2DA8" stroke-width="4.8236"/>
<path d="M85.6867 61.1403C85.6867 64.9143 82.6273 67.9738 78.8533 67.9738C75.0793 67.9738 72.0199 64.9143 72.0199 61.1403C72.0199 57.3663 75.0793 54.3069 78.8533 54.3069C82.6273 54.3069 85.6867 57.3663 85.6867 61.1403Z" fill="white" stroke="#CB2DA8" stroke-width="3.6177"/>
<path d="M41.9265 62.7119H54.8899H72.5672" stroke="#CB2DA8" stroke-width="4.8236"/>
<path d="M106.898 49.3557C106.898 53.1297 103.839 56.1891 100.065 56.1891C96.291 56.1891 93.2316 53.1297 93.2316 49.3557C93.2316 45.5817 96.291 42.5222 100.065 42.5222C103.839 42.5222 106.898 45.5817 106.898 49.3557Z" fill="white" stroke="#CB2DA8" stroke-width="3.6177"/>
<path d="M41.9265 54.8549H54.8899L64.3178 50.5337L93.3873 48.9624" stroke="#CB2DA8" stroke-width="4.8236"/>
<defs>
<clipPath id="clip0_3534_2043">
<rect width="64.4242" height="64.4242" fill="white" transform="translate(5 25)"/>
</clipPath>
</defs>
</svg>
