<svg width="170" height="171" viewBox="0 0 170 171" fill="none" xmlns="http://www.w3.org/2000/svg">
<path d="M85 0L158.612 42.75V128.25L85 171L11.3878 128.25V42.75L85 0Z" fill="#ACEDC9"/>
<g clip-path="url(#clip0_3534_1891)">
<path d="M89.6379 125.779C89.213 125.779 88.7909 125.668 88.4184 125.454L84.5366 123.158C83.9569 122.834 84.2398 122.719 84.431 122.653C85.204 122.383 85.3609 122.322 86.186 121.854C86.2728 121.804 86.3863 121.822 86.475 121.874L89.4572 123.642C89.5649 123.7 89.7177 123.7 89.8175 123.642L101.445 116.937C101.553 116.876 101.623 116.751 101.623 116.623V103.218C101.623 103.084 101.553 102.965 101.443 102.898L89.8198 96.1986C89.7121 96.1346 89.5695 96.1346 89.4618 96.1986L77.8413 102.898C77.7286 102.962 77.657 103.087 77.657 103.215V116.62C77.657 116.748 77.7269 116.87 77.8375 116.931L81.0216 118.769C82.7504 119.632 83.807 118.614 83.807 117.591V104.361C83.807 104.172 83.9554 104.026 84.1446 104.026H85.6173C85.8007 104.026 85.952 104.172 85.952 104.361V117.597C85.952 119.9 84.6947 121.223 82.5089 121.223C81.8365 121.223 81.3068 121.223 79.8283 120.496L76.778 118.74C76.0242 118.303 75.5585 117.489 75.5585 116.62V103.215C75.5585 102.343 76.0242 101.529 76.778 101.098L88.4172 94.39C89.1536 93.9742 90.1315 93.9742 90.8621 94.39L102.487 101.101C103.238 101.534 103.706 102.346 103.706 103.218V116.623C103.706 117.492 103.238 118.303 102.487 118.74L90.8621 125.448C90.4895 125.663 90.0675 125.773 89.6368 125.773" fill="#689F63"/>
<path d="M93.2294 116.543C88.1418 116.543 87.0751 114.21 87.0751 112.253C87.0751 112.067 87.2253 111.919 87.4119 111.919H88.9137C89.0796 111.919 89.2193 112.039 89.2455 112.203C89.4725 113.732 90.1477 114.503 93.2242 114.503C95.6748 114.503 96.7168 113.95 96.7168 112.652C96.7168 111.904 96.4199 111.349 92.613 110.977C89.4288 110.663 87.4613 109.962 87.4613 107.418C87.4613 105.074 89.4405 103.678 92.7556 103.678C96.4781 103.678 98.3234 104.969 98.5563 107.743C98.565 107.839 98.5301 107.932 98.466 108.002C98.402 108.069 98.3118 108.11 98.2186 108.11H96.7081C96.5509 108.11 96.4141 107.999 96.3821 107.848C96.0183 106.24 95.1393 105.725 92.7498 105.725C90.075 105.725 89.7636 106.656 89.7636 107.354C89.7636 108.2 90.1303 108.447 93.7393 108.924C97.3135 109.398 99.0103 110.067 99.0103 112.576C99.0103 115.106 96.8973 116.557 93.2125 116.557M107.375 102.341H107.765C108.085 102.341 108.146 102.117 108.146 101.986C108.146 101.643 107.911 101.643 107.78 101.643H107.378L107.375 102.341ZM106.901 101.242H107.765C108.062 101.242 108.644 101.242 108.644 101.905C108.644 102.367 108.347 102.463 108.17 102.521C108.516 102.544 108.539 102.771 108.586 103.091C108.609 103.292 108.647 103.638 108.717 103.754H108.184C108.17 103.638 108.088 102.998 108.088 102.963C108.053 102.821 108.004 102.751 107.826 102.751H107.387V103.757H106.901V101.242ZM105.862 102.492C105.862 103.533 106.703 104.376 107.736 104.376C108.778 104.376 109.619 103.515 109.619 102.492C109.619 101.448 108.766 100.619 107.733 100.619C106.714 100.619 105.859 101.436 105.859 102.489M109.98 102.498C109.98 103.731 108.97 104.737 107.739 104.737C106.517 104.737 105.498 103.742 105.498 102.498C105.498 101.23 106.54 100.259 107.739 100.259C108.947 100.259 109.977 101.233 109.977 102.498" fill="#689F63"/>
<path fill-rule="evenodd" clip-rule="evenodd" d="M53.6315 73.3297C53.6315 72.7946 53.3492 72.3032 52.887 72.0372L40.5591 64.951C40.351 64.8288 40.1179 64.7649 39.8816 64.7561H39.7541C39.5178 64.7649 39.2846 64.8288 39.073 64.951L26.7458 72.0372C26.2865 72.3047 26.0001 72.7961 26.0001 73.3311L26.0272 92.4176C26.0272 92.6822 26.164 92.9294 26.3968 93.0602C26.6238 93.1998 26.9091 93.1998 27.1361 93.0602L34.4648 88.8673C34.9276 88.5922 35.2099 88.106 35.2099 87.5762V78.6596C35.2099 78.1275 35.4922 77.6361 35.9535 77.3714L39.0736 75.5762C39.3053 75.4424 39.5597 75.3761 39.8187 75.3761C40.0737 75.3761 40.3339 75.4419 40.5591 75.5759L43.6778 77.3706C44.1394 77.6352 44.4229 78.1266 44.4229 78.6587V87.5748C44.4229 88.104 44.709 88.5925 45.1694 88.8658L52.4935 93.0559C52.7234 93.1926 53.0095 93.1926 53.2386 93.0559C53.4644 92.925 53.6076 92.6779 53.6076 92.4133L53.6315 73.3297ZM111.804 83.2672C111.804 83.4001 111.733 83.5231 111.617 83.5888L107.383 86.0273C107.268 86.0933 107.126 86.0933 107.011 86.0273L102.777 83.5888C102.66 83.5228 102.59 83.3998 102.59 83.2672V78.3833C102.59 78.2502 102.66 78.1275 102.774 78.0606L107.006 75.6181C107.122 75.5512 107.265 75.5512 107.381 75.6181L111.616 78.0606C111.732 78.1275 111.802 78.2502 111.802 78.3833L111.804 83.2672ZM112.947 47.0941C112.716 46.9656 112.435 46.9691 112.207 47.102C111.98 47.2358 111.84 47.48 111.84 47.7446V66.645C111.84 66.8311 111.741 67.0027 111.579 67.0957C111.419 67.1888 111.22 67.1888 111.058 67.0957L107.97 65.3188C107.511 65.053 106.944 65.053 106.483 65.3188L94.1507 72.4291C93.6899 72.6937 93.4056 73.1852 93.4056 73.7144V87.9391C93.4056 88.4712 93.6899 88.9597 94.1507 89.2272L106.483 96.3425C106.943 96.6071 107.51 96.6071 107.972 96.3425L120.304 89.2243C120.764 88.9568 121.049 88.4683 121.049 87.9362V52.4848C121.049 51.9452 120.755 51.4488 120.283 51.1851L112.947 47.0941ZM154.013 78.2548C154.471 77.9891 154.753 77.4982 154.753 76.969V73.5216C154.753 72.9912 154.471 72.5018 154.012 72.2349L141.758 65.1283C141.296 64.8608 140.728 64.8608 140.265 65.1283L127.936 72.2378C127.474 72.5053 127.191 72.9938 127.191 73.5259V87.7449C127.191 88.2799 127.479 88.7742 127.942 89.0388L140.193 96.0145C140.644 96.2733 141.197 96.2762 141.654 96.0233L149.064 91.9088C149.297 91.7779 149.445 91.5308 149.445 91.2633C149.445 90.9957 149.303 90.7457 149.07 90.6148L136.665 83.5025C136.432 83.3716 136.29 83.1244 136.29 82.8598V78.3993C136.29 78.133 136.429 77.8876 136.662 77.755L140.521 75.5306C140.751 75.3968 141.034 75.3968 141.264 75.5306L145.126 77.755C145.356 77.8858 145.498 78.133 145.498 78.3976V81.9044C145.498 82.169 145.641 82.4161 145.871 82.5499C146.101 82.6807 146.386 82.6807 146.616 82.547L154.013 78.2548Z" fill="#333333"/>
<path fill-rule="evenodd" clip-rule="evenodd" d="M140.831 77.5894C140.919 77.5379 141.028 77.5379 141.117 77.5894L143.483 78.9531C143.571 79.0043 143.625 79.0985 143.625 79.2003V81.9307C143.625 82.0324 143.571 82.1266 143.483 82.1778L141.117 83.5416C141.028 83.593 140.919 83.593 140.831 83.5416L138.467 82.1778C138.376 82.1266 138.321 82.0324 138.321 81.9307V79.2003C138.321 79.0985 138.373 79.0043 138.464 78.9531L140.831 77.5894Z" fill="#689F63"/>
<mask id="mask0_3534_1891" style="mask-type:luminance" maskUnits="userSpaceOnUse" x="59" y="65" width="29" height="32">
<path d="M72.7792 65.1992L60.5172 72.27C60.0579 72.5346 59.7761 73.0231 59.7761 73.5511V87.7026C59.7761 88.2309 60.0579 88.7192 60.5172 88.9838L72.7801 96.0601C73.2385 96.3238 73.8037 96.3238 74.2615 96.0601L86.5224 88.9838C86.9794 88.7192 87.2617 88.2307 87.2617 87.7026V73.5511C87.2617 73.0231 86.9794 72.5346 86.5195 72.27L74.2604 65.1992C74.0304 65.0675 73.7743 65.0015 73.5182 65.0015C73.2621 65.0015 73.0059 65.0675 72.776 65.1992" fill="white"/>
</mask>
<g mask="url(#mask0_3534_1891)">
<path d="M99.653 71.0696L65.1007 54.1494L47.3843 90.2562L81.9358 107.177L99.653 71.0696Z" fill="url(#paint0_linear_3534_1891)"/>
</g>
<mask id="mask1_3534_1891" style="mask-type:luminance" maskUnits="userSpaceOnUse" x="60" y="65" width="27" height="32">
<path d="M60.08 88.6012C60.1973 88.7533 60.344 88.885 60.5166 88.9839L71.0353 95.0538L72.7874 96.0599C73.0494 96.2111 73.348 96.2751 73.6414 96.2533C73.7391 96.2454 73.8369 96.2271 73.9324 96.2001L86.865 72.5426C86.7661 72.435 86.6502 72.3448 86.5204 72.2692L78.4915 67.6372L74.2473 65.1976C74.1268 65.1278 73.9961 65.0784 73.8631 65.0435L60.08 88.6012Z" fill="white"/>
</mask>
<g mask="url(#mask1_3534_1891)">
<path d="M45.1408 76.0742L69.5383 109.064L101.804 85.2473L77.4054 52.2588L45.1408 76.0742Z" fill="url(#paint1_linear_3534_1891)"/>
</g>
<mask id="mask2_3534_1891" style="mask-type:luminance" maskUnits="userSpaceOnUse" x="60" y="65" width="28" height="32">
<path d="M73.3718 65.0099C73.166 65.0303 72.9649 65.0942 72.7795 65.1995L60.5524 72.2499L73.7371 96.2418C73.9204 96.2157 74.1009 96.1546 74.2639 96.0604L86.5259 88.9841C86.9043 88.7648 87.1633 88.3938 87.2419 87.9733L73.8011 65.0341C73.7022 65.0146 73.6032 65.0044 73.5013 65.0044C73.4606 65.0044 73.4198 65.0064 73.3791 65.0102" fill="white"/>
</mask>
<g mask="url(#mask2_3534_1891)">
<path d="M60.552 65.0044V96.2424H87.2366V65.0044H60.552Z" fill="url(#paint2_linear_3534_1891)"/>
</g>
</g>
<defs>
<linearGradient id="paint0_linear_3534_1891" x1="82.3665" y1="62.5829" x2="64.6785" y2="98.7006" gradientUnits="userSpaceOnUse">
<stop offset="0.3" stop-color="#3E863D"/>
<stop offset="0.5" stop-color="#55934F"/>
<stop offset="0.8" stop-color="#5AAD45"/>
</linearGradient>
<linearGradient id="paint1_linear_3534_1891" x1="57.4857" y1="92.758" x2="89.7314" y2="68.9096" gradientUnits="userSpaceOnUse">
<stop offset="0.57" stop-color="#3E863D"/>
<stop offset="0.72" stop-color="#619857"/>
<stop offset="1" stop-color="#76AC64"/>
</linearGradient>
<linearGradient id="paint2_linear_3534_1891" x1="60.5611" y1="80.6243" x2="87.2417" y2="80.6243" gradientUnits="userSpaceOnUse">
<stop offset="0.16" stop-color="#6BBF47"/>
<stop offset="0.38" stop-color="#79B461"/>
<stop offset="0.47" stop-color="#75AC64"/>
<stop offset="0.7" stop-color="#659E5A"/>
<stop offset="0.9" stop-color="#3E863D"/>
</linearGradient>
<clipPath id="clip0_3534_1891">
<rect width="128.753" height="78.7795" fill="white" transform="translate(26 47)"/>
</clipPath>
</defs>
</svg>
