<svg width="170" height="171" viewBox="0 0 170 171" fill="none" xmlns="http://www.w3.org/2000/svg">
<path d="M85 0L158.612 42.75V128.25L85 171L11.3878 128.25V42.75L85 0Z" fill="#2B3362"/>
<g clip-path="url(#clip0_3534_1819)">
<path d="M45.5116 71.9741H59.5466C63.6978 71.9741 66.6629 73.1592 68.5408 75.5293C70.4187 77.8995 71.0118 81.0597 70.4187 85.1087C70.2211 86.985 69.628 88.7627 68.8373 90.5403C68.0466 92.3179 66.9594 93.898 65.4768 95.3793C63.6978 97.1569 61.8198 98.342 59.8431 98.8358C57.8663 99.3296 55.7907 99.5271 53.6163 99.5271H47.2907L45.3139 109.501H37.9999L45.5116 71.9741ZM51.6395 77.9982L48.4767 93.7005C48.6744 93.7005 48.8721 93.7992 49.0698 93.7992C49.2674 93.7992 49.564 93.7992 49.7616 93.7992C53.1221 93.7992 55.8896 93.503 58.1628 92.8117C60.4361 92.1204 61.9187 89.5527 62.7094 85.2074C63.3024 81.5535 62.7094 79.4796 60.8315 78.887C58.9536 78.2945 56.6803 78.097 53.9128 78.097C53.5175 78.097 53.1221 78.1958 52.7268 78.1958C52.3314 77.9982 51.9361 77.9982 51.6395 77.9982Z" fill="white"/>
<path d="M78.6223 62H85.8375L83.7619 71.9744H90.2852C93.8434 72.0731 96.512 72.7644 98.2911 74.147C100.07 75.5296 100.564 78.196 99.8725 82.1462L96.3143 99.6261H89.0003L92.3608 82.9363C92.7561 81.1587 92.5585 79.9736 92.0643 79.1836C91.4712 78.4923 90.2852 78.0972 88.4073 78.0972L82.5758 77.9985L78.3258 99.5273H71.1106L78.6223 62Z" fill="white"/>
<path d="M107.582 71.9741H121.617C125.768 71.9741 128.733 73.1592 130.611 75.5293C132.489 77.8995 133.082 81.0597 132.489 85.1087C132.291 86.985 131.698 88.7627 130.908 90.5403C130.117 92.3179 129.03 93.898 127.547 95.3793C125.768 97.1569 123.89 98.342 121.913 98.8358C119.937 99.3296 117.861 99.5271 115.687 99.5271H109.361L107.384 109.501H100.07L107.582 71.9741ZM113.71 77.9982L110.547 93.7005C110.745 93.7005 110.942 93.7992 111.14 93.7992C111.338 93.7992 111.634 93.7992 111.832 93.7992C115.192 93.7992 117.96 93.503 120.233 92.8117C122.506 92.1204 123.989 89.5527 124.78 85.2074C125.373 81.5535 124.78 79.4796 122.902 78.887C121.024 78.2945 118.751 78.097 115.983 78.097C115.588 78.097 115.192 78.1958 114.797 78.1958C114.402 77.9982 114.006 77.9982 113.71 77.9982Z" fill="white"/>
</g>
<defs>
<clipPath id="clip0_3534_1819">
<rect width="94.6867" height="47.5017" fill="white" transform="translate(38 62)"/>
</clipPath>
</defs>
</svg>
