<svg width="170" height="171" viewBox="0 0 170 171" fill="none" xmlns="http://www.w3.org/2000/svg">
<path d="M85 0L158.612 42.75V128.25L85 171L11.3878 128.25V42.75L85 0Z" fill="#86C5F8"/>
<g clip-path="url(#clip0_3534_1835)">
<path d="M81.4513 31.0005C78.9339 31.0122 76.5298 31.227 74.4144 31.6015C68.1829 32.703 67.0515 35.0085 67.0515 39.2602V44.8754H81.7774V46.7471H67.0515H61.525C57.2452 46.7471 53.4977 49.3208 52.3255 54.2168C50.9735 59.8289 50.9135 63.3308 52.3255 69.1907C53.3723 73.5525 55.8721 76.6604 60.1519 76.6604H65.215V69.9291C65.215 65.0661 69.4205 60.7765 74.4144 60.7765H89.1232C93.2176 60.7765 96.4861 57.4036 96.4861 53.2896V39.2602C96.4861 35.2673 93.1194 32.2679 89.1232 31.6015C86.5935 31.1802 83.9687 30.9888 81.4513 31.0005ZM73.4876 35.5167C75.0087 35.5167 76.2509 36.7798 76.2509 38.3329C76.2509 39.8805 75.0087 41.1319 73.4876 41.1319C71.9611 41.1319 70.7244 39.8805 70.7244 38.3329C70.7244 36.7798 71.9611 35.5167 73.4876 35.5167Z" fill="url(#paint0_linear_3534_1835)"/>
<path d="M98.3227 46.7471V53.2895C98.3227 58.3618 94.0245 62.631 89.1233 62.631H74.4145C70.3855 62.631 67.0515 66.081 67.0515 70.118V84.1474C67.0515 88.1402 70.5218 90.4887 74.4145 91.6343C79.0759 93.0056 83.5459 93.2534 89.1233 91.6343C92.8306 90.5603 96.4862 88.399 96.4862 84.1474V78.5322H81.7775V76.6604H96.4862H103.849C108.129 76.6604 109.724 73.6737 111.212 69.1907C112.75 64.5755 112.684 60.1372 111.212 54.2168C110.154 49.9541 108.134 46.7471 103.849 46.7471H98.3227ZM90.0501 82.2756C91.5766 82.2756 92.8133 83.5271 92.8133 85.0746C92.8133 86.6277 91.5766 87.8908 90.0501 87.8908C88.529 87.8908 87.2868 86.6277 87.2868 85.0746C87.2868 83.5271 88.529 82.2756 90.0501 82.2756Z" fill="url(#paint1_linear_3534_1835)"/>
<path opacity="0.44382" d="M81.9445 105C92.8433 105 101.678 103.286 101.678 101.171C101.678 99.0569 92.8433 97.3428 81.9445 97.3428C71.0457 97.3428 62.2105 99.0569 62.2105 101.171C62.2105 103.286 71.0457 105 81.9445 105Z" fill="url(#paint2_radial_3534_1835)"/>
</g>
<path d="M35.2266 110.586H43.6055C45.1523 110.578 46.4844 110.715 47.6016 110.996C48.7266 111.27 49.6523 111.664 50.3789 112.18C51.1055 112.695 51.6406 113.316 51.9844 114.043C52.3359 114.762 52.5117 115.562 52.5117 116.445C52.5117 117.219 52.3477 117.961 52.0195 118.672C51.6992 119.375 51.1992 119.996 50.5195 120.535C49.8477 121.074 48.9883 121.504 47.9414 121.824C46.9023 122.145 45.6641 122.305 44.2266 122.305H42V128H35.2266V110.586ZM42 119.75C42.5391 119.742 43.0195 119.66 43.4414 119.504C43.8633 119.34 44.2188 119.117 44.5078 118.836C44.7969 118.547 45.0156 118.203 45.1641 117.805C45.3203 117.398 45.3984 116.945 45.3984 116.445C45.3984 115.953 45.3203 115.508 45.1641 115.109C45.0078 114.711 44.7812 114.371 44.4844 114.09C44.1953 113.801 43.8398 113.574 43.418 113.41C43.0039 113.246 42.5312 113.156 42 113.141V119.75ZM53.1211 116.387H59.7773L62.5898 123.582L65.4023 116.387H68.5312L63.5391 128.234C63.2188 128.984 62.875 129.648 62.5078 130.227C62.1406 130.805 61.7148 131.312 61.2305 131.75C60.7539 132.195 60.207 132.582 59.5898 132.91C58.9727 133.238 58.2617 133.531 57.457 133.789L56.6367 131.867C57.2617 131.648 57.8047 131.398 58.2656 131.117C58.7266 130.844 59.1172 130.555 59.4375 130.25C59.7578 129.953 60.0156 129.652 60.2109 129.348C60.4141 129.043 60.5703 128.754 60.6797 128.48L60.8672 127.988H58.0312L53.1211 116.387ZM71.0273 118.32H69.7148V116.387H71.0273V112.52H77.3906V116.387H80.4492L79.2539 118.32H77.3906V123.582C77.3906 124.379 77.5664 124.992 77.918 125.422C78.2773 125.852 78.7891 126.066 79.4531 126.066L78.7266 127.672C78.3203 127.844 77.8867 127.977 77.4258 128.07C76.9727 128.172 76.4453 128.223 75.8438 128.223C75 128.223 74.2734 128.117 73.6641 127.906C73.0547 127.688 72.5547 127.379 72.1641 126.98C71.7734 126.582 71.4844 126.094 71.2969 125.516C71.1172 124.938 71.0273 124.285 71.0273 123.559V118.32ZM82.3359 108.652H88.6992V118.25C89.5742 117.617 90.4688 117.113 91.3828 116.738C92.3047 116.355 93.2695 116.164 94.2773 116.164C94.8164 116.164 95.3164 116.254 95.7773 116.434C96.2461 116.613 96.6523 116.891 96.9961 117.266C97.3398 117.641 97.6094 118.125 97.8047 118.719C98 119.305 98.0977 120.008 98.0977 120.828V128H91.7344V120.43C91.7344 120.023 91.6445 119.727 91.4648 119.539C91.293 119.352 91.0078 119.258 90.6094 119.258C90.4297 119.258 90.25 119.285 90.0703 119.34C89.8984 119.395 89.7305 119.465 89.5664 119.551C89.4023 119.637 89.2461 119.734 89.0977 119.844C88.9492 119.953 88.8164 120.062 88.6992 120.172V128H82.3359V108.652ZM100.512 122.199C100.512 121.277 100.699 120.445 101.074 119.703C101.457 118.961 102.004 118.328 102.715 117.805C103.434 117.281 104.309 116.879 105.34 116.598C106.371 116.309 107.543 116.164 108.855 116.164C110.168 116.164 111.34 116.309 112.371 116.598C113.402 116.879 114.273 117.281 114.984 117.805C115.703 118.328 116.25 118.961 116.625 119.703C117.008 120.445 117.199 121.277 117.199 122.199C117.199 123.113 117.008 123.941 116.625 124.684C116.25 125.426 115.703 126.059 114.984 126.582C114.273 127.105 113.402 127.512 112.371 127.801C111.34 128.082 110.168 128.223 108.855 128.223C107.543 128.223 106.371 128.082 105.34 127.801C104.309 127.512 103.434 127.105 102.715 126.582C102.004 126.059 101.457 125.426 101.074 124.684C100.699 123.941 100.512 123.113 100.512 122.199ZM108.855 126.078C109.145 126.078 109.402 126.02 109.629 125.902C109.855 125.785 110.043 125.582 110.191 125.293C110.34 124.996 110.453 124.598 110.531 124.098C110.609 123.598 110.648 122.965 110.648 122.199C110.648 121.426 110.609 120.789 110.531 120.289C110.453 119.789 110.34 119.395 110.191 119.105C110.043 118.809 109.855 118.602 109.629 118.484C109.402 118.367 109.145 118.309 108.855 118.309C108.559 118.309 108.297 118.367 108.07 118.484C107.852 118.602 107.668 118.809 107.52 119.105C107.371 119.395 107.258 119.789 107.18 120.289C107.102 120.789 107.062 121.426 107.062 122.199C107.062 122.965 107.102 123.598 107.18 124.098C107.258 124.598 107.371 124.996 107.52 125.293C107.668 125.582 107.852 125.785 108.07 125.902C108.297 126.02 108.559 126.078 108.855 126.078ZM119.719 116.387H125.332L125.895 118.074C126.723 117.441 127.562 116.965 128.414 116.645C129.273 116.324 130.176 116.164 131.121 116.164C131.66 116.164 132.16 116.254 132.621 116.434C133.09 116.613 133.496 116.891 133.84 117.266C134.184 117.641 134.453 118.125 134.648 118.719C134.844 119.305 134.941 120.008 134.941 120.828V128H128.578V120.43C128.578 120.023 128.488 119.727 128.309 119.539C128.129 119.352 127.867 119.258 127.523 119.258C127.297 119.258 127.047 119.305 126.773 119.398C126.5 119.492 126.27 119.641 126.082 119.844V128H119.719V116.387Z" fill="#3A3A3A"/>
<defs>
<linearGradient id="paint0_linear_3534_1835" x1="51.2889" y1="31" x2="85.2598" y2="59.9332" gradientUnits="userSpaceOnUse">
<stop stop-color="#5A9FD4"/>
<stop offset="1" stop-color="#306998"/>
</linearGradient>
<linearGradient id="paint1_linear_3534_1835" x1="89.6962" y1="84.6025" x2="77.5057" y2="67.5287" gradientUnits="userSpaceOnUse">
<stop stop-color="#FFD43B"/>
<stop offset="1" stop-color="#FFE873"/>
</linearGradient>
<radialGradient id="paint2_radial_3534_1835" cx="0" cy="0" r="1" gradientUnits="userSpaceOnUse" gradientTransform="translate(81.9445 101.171) rotate(-90) scale(3.82854 16.8194)">
<stop stop-color="#B8B8B8" stop-opacity="0.498039"/>
<stop offset="1" stop-color="#7F7F7F" stop-opacity="0"/>
</radialGradient>
<clipPath id="clip0_3534_1835">
<rect width="67.4222" height="74" fill="white" transform="translate(51.2889 31)"/>
</clipPath>
</defs>
</svg>
