<svg width="100" height="100" viewBox="0 0 100 100" fill="none" xmlns="http://www.w3.org/2000/svg">
<g clip-path="url(#clip0_3534_2065)">
<path d="M46.65 0.966901C47.5924 0.337737 48.7002 0.00195312 49.8333 0.00195313C50.9665 0.00195312 52.0742 0.337737 53.0167 0.966901C57.9252 4.05376 62.6345 7.44658 67.1167 11.1252C67.1167 11.1252 68.3375 11.9711 68.3708 10.5419C68.2503 8.68956 68.3609 6.82942 68.7 5.0044C68.8813 4.52922 69.2018 4.11985 69.6196 3.8299C70.0374 3.53995 70.5331 3.38293 71.0416 3.3794C71.0416 3.3794 76.5792 3.6544 80.0958 4.12523C81.6666 4.33357 82.8917 5.5919 83.0583 7.1669C83.0583 7.1669 85.3208 22.2502 85.8292 27.6877C85.8292 27.6877 86.2667 30.4544 90.275 35.1461C90.275 35.1461 98.4125 46.5419 99.3583 48.7252C99.3583 48.7252 101.25 52.6669 97.1792 53.2002C97.1792 53.2002 89.75 53.9502 89.0333 54.1169C88.5533 54.1755 88.1151 54.419 87.8116 54.7955C87.5082 55.1721 87.3636 55.6521 87.4083 56.1336C87.4083 56.1336 87.0167 82.3669 85.0958 94.9669C85.0958 94.9669 84.5917 99.9669 81.8375 99.8544C81.8375 99.8544 74.2 99.6086 72.425 99.6586C72.425 99.6586 71.6625 99.6586 71.775 98.6336C71.775 98.6336 75.6667 57.7294 73.0292 37.0502C73.0292 37.0502 72.9125 34.3836 70.8792 33.7919C70.8792 33.7919 69.025 33.0419 67.25 35.4211C59.5473 46.2042 55.3305 59.0871 55.1666 72.3377C55.1666 72.3377 54.9583 78.8502 55.95 80.4752C55.95 80.4752 56.5667 81.6169 59.7292 81.8752L63.7292 82.4169C63.7292 82.4169 64.4625 82.4169 64.3958 83.3877C64.3958 83.3877 63.4875 95.3877 63.2292 97.5252C63.2124 98.0109 63.1124 98.4901 62.9333 98.9419C62.9333 98.9419 62.7875 99.3502 61.5333 99.3002C61.5333 99.3002 43.8833 99.1752 41.8958 99.3002C41.8958 99.3002 41.0625 99.3002 40.8875 98.8627C40.7083 98.4211 39.6625 83.3752 39.6958 81.2419C39.6807 81.0257 39.7321 80.81 39.843 80.6238C39.954 80.4376 40.1193 80.2898 40.3167 80.2002C41.6632 79.3502 42.8012 78.2082 43.6465 76.8587C44.4918 75.5092 45.0228 73.9869 45.2 72.4044C45.4166 70.1211 45.45 67.8294 45.3 65.5461C45.3 65.5461 45.95 42.5377 46.1125 38.8377C46.1125 38.8377 46.2416 37.5877 44.6125 37.3586C44.2219 37.2672 43.811 37.3342 43.4698 37.5451C43.1285 37.7559 42.8847 38.0934 42.7917 38.4836V38.6086C42.7917 38.7419 41.65 53.7877 41.8625 59.7794C41.8625 59.7794 42.2542 63.7044 39.5375 63.7836C39.5375 63.7836 36.8958 64.1794 36.7667 60.9086C36.7667 60.9086 36.9625 46.1502 37.6125 38.8586C37.6159 38.4555 37.4693 38.0657 37.2014 37.7646C36.9334 37.4635 36.5632 37.2728 36.1625 37.2294C35.7478 37.1721 35.327 37.277 34.9878 37.5223C34.6486 37.7676 34.4171 38.1343 34.3417 38.5461C34.3312 38.5885 34.3312 38.6328 34.3417 38.6752C34.3417 38.6752 33.2 52.8002 33.4125 60.2544C33.4125 60.2544 33.7375 63.8711 30.8542 63.7377C30.8542 63.7377 28.4458 64.0127 28.3125 60.8044C28.3125 60.8044 28.9667 40.5961 29.1458 39.0377C29.1272 38.6507 28.9708 38.283 28.7049 38.0011C28.439 37.7191 28.0811 37.5415 27.6958 37.5002H27.5333C27.1261 37.4664 26.721 37.5868 26.3984 37.8377C26.0758 38.0885 25.8592 38.4514 25.7917 38.8544C25.7865 38.9029 25.7865 38.9518 25.7917 39.0002C25.7917 39.0002 24.7167 63.1669 24.8625 70.2627C24.8625 70.2627 24.7667 77.5586 30.1542 80.5211C30.1542 80.5211 30.9542 80.9794 30.9708 81.6752C30.9708 81.6752 31.575 94.4919 32.125 98.6294C32.125 98.6294 32.3208 99.6211 31.4417 99.6211L17.8792 100C17.1683 99.996 16.4859 99.7208 15.971 99.2307C15.4561 98.7406 15.1476 98.0725 15.1083 97.3627C13.3512 83.7834 12.5145 70.1008 12.6042 56.4086C12.6515 55.9022 12.512 55.396 12.2119 54.9853C11.9118 54.5747 11.4718 54.2881 10.975 54.1794C10.975 54.1794 4.03749 53.5419 2.35832 53.1211C1.9271 53.0085 1.52782 52.7976 1.19186 52.5048C0.855888 52.212 0.592371 51.8452 0.421994 51.4334C0.251618 51.0216 0.179021 50.5759 0.209904 50.1313C0.240788 49.6867 0.374311 49.2554 0.599988 48.8711C11.8708 29.4281 27.6657 12.9943 46.65 0.966901Z" fill="#93850D"/>
</g>
<defs>
<clipPath id="clip0_3534_2065">
<rect width="100" height="100" fill="white"/>
</clipPath>
</defs>
</svg>
