<svg width="132" height="100" viewBox="0 0 132 100" fill="none" xmlns="http://www.w3.org/2000/svg">
<path d="M99.4204 90.8556L99.5235 91.3335H96.8016L96.5167 90.0171L95.3234 84.5037L95.1264 83.5935H95.1269L94.6035 81.1711L92.4502 71.2045L92.2534 70.2935H92.2625L91.7365 67.8693L89.5765 57.916L89.3792 57.0068H89.3802L88.8569 54.5844L87.0635 46.2844L86.7227 44.7068H85.1086H77.502H75.8892L75.5474 46.2829L73.7474 54.583L73.2217 57.0068H73.2375L73.0405 57.9173L70.8872 67.8706L70.5072 69.6268H70.5013L70.1604 71.2045L68.0071 81.1711L67.6278 82.9268H67.62L67.2801 84.506L66.0934 90.0193L65.8106 91.3335H63.0803L63.1835 90.8561L73.5101 43.0894L73.5107 43.0868C73.5748 42.7886 73.7392 42.5213 73.9765 42.3296C74.2138 42.1379 74.5097 42.0334 74.8147 42.0335H74.8153H79.6486H80.9886V42.0402H82.9886L87.7953 42.0402L87.8008 42.0402C88.1059 42.0393 88.4021 42.1432 88.6399 42.3344C88.8775 42.5254 89.0425 42.7922 89.1073 43.0901C89.1073 43.0903 89.1074 43.0906 89.1074 43.0908L99.4204 90.8556ZM82.6203 28.7744L81.3268 29.0168L80.1012 28.732C78.876 28.4474 77.7823 27.7586 76.9963 26.7766C76.2104 25.7945 75.7779 24.5765 75.7686 23.3187L75.7684 23.2967L75.7678 23.2747C75.7453 22.5106 75.8764 21.7498 76.1533 21.0373C76.4302 20.3248 76.8472 19.6751 77.3797 19.1266C77.9123 18.5782 78.5494 18.1423 79.2535 17.8445C79.9576 17.5468 80.7142 17.3934 81.4786 17.3934C82.2431 17.3934 82.9997 17.5468 83.7038 17.8445C84.4078 18.1423 85.045 18.5782 85.5775 19.1266L87.0124 17.7334L85.5775 19.1266C86.11 19.6751 86.5271 20.3248 86.804 21.0373C87.0809 21.7498 87.212 22.5106 87.1895 23.2747L87.1889 23.2958L87.1887 23.3168C87.1779 24.6151 86.7163 25.8692 85.883 26.8647C85.0497 27.8602 83.8963 28.5353 82.6203 28.7744Z" fill="black" stroke="black" stroke-width="4"/>
<mask id="path-2-inside-1_3534_2077" fill="white">
<path d="M49.1147 70.5877C44.8078 70.5877 40.3918 69.5092 35.8667 67.3523C31.3417 65.1938 27.1386 62.1654 23.2576 58.2673C19.3731 54.3675 16.3525 50.1637 14.1956 45.6556C12.0387 41.1476 10.9602 36.7402 10.9602 32.4332C10.9602 31.6529 11.2158 31.0029 11.7269 30.4833C12.238 29.9602 12.8769 29.6987 13.6436 29.6987H19.9635C20.6586 29.6987 21.2651 29.9177 21.783 30.3555C22.3009 30.7934 22.6511 31.3539 22.8334 32.0371L24.1009 38.1321C24.2202 38.8476 24.1989 39.472 24.037 40.0053C23.8769 40.5386 23.5941 40.9756 23.1886 41.3163L17.5791 46.545C18.6286 48.4497 19.788 50.2182 21.0572 51.8503C22.3265 53.4842 23.6809 55.032 25.1206 56.4938C26.6028 57.976 28.1992 59.356 29.9097 60.6338C31.6202 61.9099 33.4977 63.1144 35.5422 64.2473L41.0085 58.6839C41.4242 58.2358 41.8919 57.9402 42.4115 57.7971C42.9311 57.6557 43.5053 57.6276 44.1339 57.7128L49.5108 58.8117C50.2042 58.982 50.7673 59.3313 51.2001 59.8594C51.6328 60.3893 51.8492 60.9967 51.8492 61.6816V67.9044C51.8492 68.671 51.5885 69.3099 51.0672 69.821C50.5475 70.3321 49.895 70.5877 49.1147 70.5877ZM16.3831 44.1479L21.2898 39.6347C21.4533 39.5053 21.559 39.3255 21.6067 39.0955C21.6578 38.8655 21.6493 38.6526 21.5811 38.4566L20.449 33.0388C20.3826 32.7782 20.2676 32.5823 20.104 32.4511C19.9405 32.3199 19.7266 32.2543 19.4626 32.2543H14.2186C14.0226 32.2543 13.8591 32.3199 13.7279 32.4511C13.5967 32.5823 13.5311 32.7458 13.5311 32.9417C13.5805 34.688 13.8531 36.511 14.3489 38.4106C14.8481 40.312 15.5253 42.2244 16.3806 44.1479H16.3831ZM37.9776 65.4459C39.7052 66.3012 41.5452 66.9341 43.4976 67.3447C45.4535 67.7536 47.1572 67.9725 48.6087 68.0015C48.8047 68.0015 48.9682 67.9367 49.0994 67.8072C49.2306 67.6761 49.2962 67.5116 49.2962 67.314V62.185C49.2962 61.9226 49.2306 61.7097 49.0994 61.5461C48.9682 61.3809 48.7723 61.2659 48.5116 61.2011L43.7838 60.2326C43.5862 60.1678 43.4133 60.1593 43.2651 60.207C43.1185 60.2581 42.9635 60.3646 42.7999 60.5264L37.9776 65.4459Z"/>
</mask>
<path d="M49.1147 70.5877C44.8078 70.5877 40.3918 69.5092 35.8667 67.3523C31.3417 65.1938 27.1386 62.1654 23.2576 58.2673C19.3731 54.3675 16.3525 50.1637 14.1956 45.6556C12.0387 41.1476 10.9602 36.7402 10.9602 32.4332C10.9602 31.6529 11.2158 31.0029 11.7269 30.4833C12.238 29.9602 12.8769 29.6987 13.6436 29.6987H19.9635C20.6586 29.6987 21.2651 29.9177 21.783 30.3555C22.3009 30.7934 22.6511 31.3539 22.8334 32.0371L24.1009 38.1321C24.2202 38.8476 24.1989 39.472 24.037 40.0053C23.8769 40.5386 23.5941 40.9756 23.1886 41.3163L17.5791 46.545C18.6286 48.4497 19.788 50.2182 21.0572 51.8503C22.3265 53.4842 23.6809 55.032 25.1206 56.4938C26.6028 57.976 28.1992 59.356 29.9097 60.6338C31.6202 61.9099 33.4977 63.1144 35.5422 64.2473L41.0085 58.6839C41.4242 58.2358 41.8919 57.9402 42.4115 57.7971C42.9311 57.6557 43.5053 57.6276 44.1339 57.7128L49.5108 58.8117C50.2042 58.982 50.7673 59.3313 51.2001 59.8594C51.6328 60.3893 51.8492 60.9967 51.8492 61.6816V67.9044C51.8492 68.671 51.5885 69.3099 51.0672 69.821C50.5475 70.3321 49.895 70.5877 49.1147 70.5877ZM16.3831 44.1479L21.2898 39.6347C21.4533 39.5053 21.559 39.3255 21.6067 39.0955C21.6578 38.8655 21.6493 38.6526 21.5811 38.4566L20.449 33.0388C20.3826 32.7782 20.2676 32.5823 20.104 32.4511C19.9405 32.3199 19.7266 32.2543 19.4626 32.2543H14.2186C14.0226 32.2543 13.8591 32.3199 13.7279 32.4511C13.5967 32.5823 13.5311 32.7458 13.5311 32.9417C13.5805 34.688 13.8531 36.511 14.3489 38.4106C14.8481 40.312 15.5253 42.2244 16.3806 44.1479H16.3831ZM37.9776 65.4459C39.7052 66.3012 41.5452 66.9341 43.4976 67.3447C45.4535 67.7536 47.1572 67.9725 48.6087 68.0015C48.8047 68.0015 48.9682 67.9367 49.0994 67.8072C49.2306 67.6761 49.2962 67.5116 49.2962 67.314V62.185C49.2962 61.9226 49.2306 61.7097 49.0994 61.5461C48.9682 61.3809 48.7723 61.2659 48.5116 61.2011L43.7838 60.2326C43.5862 60.1678 43.4133 60.1593 43.2651 60.207C43.1185 60.2581 42.9635 60.3646 42.7999 60.5264L37.9776 65.4459Z" fill="black"/>
<path d="M35.8667 67.3523L34.0559 71.1483L34.0571 71.1488L35.8667 67.3523ZM23.2576 58.2673L26.238 55.3L26.2373 55.2993L23.2576 58.2673ZM11.7269 30.4833L14.7253 33.4325L14.7349 33.4227L11.7269 30.4833ZM22.8334 32.0371L26.951 31.1807L26.9271 31.066L26.8969 30.9528L22.8334 32.0371ZM24.1009 38.1321L28.2494 37.4407L28.2356 37.3579L28.2185 37.2758L24.1009 38.1321ZM24.037 40.0053L20.0126 38.7838L20.009 38.7956L24.037 40.0053ZM23.1886 41.3163L20.4829 38.0965L20.4 38.1661L20.3209 38.2398L23.1886 41.3163ZM17.5791 46.545L14.7115 43.4685L12.3136 45.7036L13.8955 48.5746L17.5791 46.545ZM21.0572 51.8503L24.3785 49.2702L24.3772 49.2685L21.0572 51.8503ZM25.1206 56.4938L22.1241 59.4449L22.1353 59.4563L22.1467 59.4677L25.1206 56.4938ZM29.9097 60.6338L27.3927 64.0032L27.3949 64.0048L29.9097 60.6338ZM35.5422 64.2473L33.5036 67.926L36.3008 69.4761L38.5421 67.1949L35.5422 64.2473ZM41.0085 58.6839L44.0085 61.6315L44.0507 61.5885L44.0917 61.5443L41.0085 58.6839ZM42.4115 57.7971L41.3071 53.739L41.2948 53.7424L42.4115 57.7971ZM44.1339 57.7128L44.9761 53.5922L44.8382 53.564L44.6987 53.5451L44.1339 57.7128ZM49.5108 58.8117L50.5143 54.7274L50.434 54.7077L50.353 54.6911L49.5108 58.8117ZM51.2001 59.8594L54.4574 57.1991L54.4532 57.1939L51.2001 59.8594ZM51.0672 69.821L48.1229 66.8178L48.118 66.8227L51.0672 69.821ZM16.3831 44.1479V48.3536H18.0232L19.2303 47.2433L16.3831 44.1479ZM21.2898 39.6347L18.6793 36.3373L18.5572 36.4339L18.4426 36.5393L21.2898 39.6347ZM21.6067 39.0955L17.5011 38.1832L17.4947 38.2122L17.4886 38.2414L21.6067 39.0955ZM21.5811 38.4566L17.4643 39.3169L17.5198 39.5823L17.6088 39.8383L21.5811 38.4566ZM20.449 33.0388L24.5658 32.1786L24.5471 32.0889L24.5244 32L20.449 33.0388ZM19.4626 32.2543V36.46V32.2543ZM13.5311 32.9417H9.32539V33.0012L9.32707 33.0607L13.5311 32.9417ZM14.3489 38.4106L10.2795 39.4727L10.281 39.4786L14.3489 38.4106ZM16.3806 44.1479L12.5376 45.8566L13.6479 48.3536H16.3806V44.1479ZM37.9776 65.4459L34.9742 62.5018L30.9153 66.6425L36.1116 69.215L37.9776 65.4459ZM43.4976 67.3447L42.6321 71.4604L42.637 71.4614L43.4976 67.3447ZM48.6087 68.0015L48.5248 72.2063L48.5668 72.2072H48.6087V68.0015ZM49.0994 67.8072L52.0538 70.8005L52.0636 70.7909L52.0733 70.7811L49.0994 67.8072ZM49.0994 61.5461L45.8054 64.161L45.812 64.1693L45.8186 64.1776L49.0994 61.5461ZM48.5116 61.2011L49.5254 57.1194L49.4409 57.0984L49.3557 57.081L48.5116 61.2011ZM43.7838 60.2326L42.4746 64.2293L42.7036 64.3043L42.9398 64.3527L43.7838 60.2326ZM43.2651 60.207L41.9766 56.2035L41.928 56.2192L41.8798 56.236L43.2651 60.207ZM42.7999 60.5264L39.8417 57.537L39.8189 57.5595L39.7965 57.5823L42.7999 60.5264ZM49.1147 66.382C45.5286 66.382 41.7284 65.4873 37.6763 63.5559L34.0571 71.1488C39.0551 73.5312 44.0869 74.7934 49.1147 74.7934V66.382ZM37.6775 63.5564C33.6271 61.6242 29.8123 58.89 26.238 55.3L20.2772 61.2347C24.4649 65.4408 29.0563 68.7633 34.0559 71.1483L37.6775 63.5564ZM26.2373 55.2993C22.6535 51.7013 19.9221 47.8799 17.9894 43.8405L10.4017 47.4708C12.7828 52.4474 16.0928 57.0338 20.2778 61.2354L26.2373 55.2993ZM17.9894 43.8405C16.0603 39.8086 15.1659 36.0187 15.1659 32.4332H6.7545C6.7545 37.4616 8.01702 42.4867 10.4017 47.4708L17.9894 43.8405ZM15.1659 32.4332C15.1659 32.5082 15.1522 32.68 15.0659 32.8994C14.9775 33.1243 14.8491 33.3066 14.7253 33.4325L8.72852 27.5341C7.38541 28.8996 6.7545 30.6355 6.7545 32.4332H15.1659ZM14.7349 33.4227C14.6131 33.5473 14.4261 33.6875 14.1826 33.7871C13.9433 33.8851 13.7462 33.9045 13.6436 33.9045V25.493C11.8058 25.493 10.0631 26.1683 8.7189 27.5439L14.7349 33.4227ZM13.6436 33.9045H19.9635V25.493H13.6436V33.9045ZM19.9635 33.9045C19.8623 33.9045 19.7009 33.8871 19.5118 33.8188C19.3212 33.75 19.1704 33.654 19.0678 33.5673L24.4982 27.1437C23.2007 26.0468 21.6256 25.493 19.9635 25.493V33.9045ZM19.0678 33.5673C19.0023 33.512 18.9292 33.4319 18.867 33.3323C18.8057 33.2342 18.7789 33.1554 18.7698 33.1214L26.8969 30.9528C26.5031 29.4769 25.7015 28.1609 24.4982 27.1437L19.0678 33.5673ZM18.7157 32.8934L19.9833 38.9884L28.2185 37.2758L26.951 31.1807L18.7157 32.8934ZM19.9524 38.8235C19.9732 38.9485 19.9708 39.0013 19.9711 38.9937C19.9714 38.9838 19.9753 38.9066 20.0126 38.7838L28.0615 41.2268C28.4593 39.916 28.4442 38.6093 28.2494 37.4407L19.9524 38.8235ZM20.009 38.7956C20.0352 38.7085 20.0853 38.585 20.174 38.4479C20.2636 38.3094 20.3713 38.1902 20.4829 38.0965L25.8943 44.5361C26.9599 43.6407 27.682 42.4904 28.065 41.215L20.009 38.7956ZM20.3209 38.2398L14.7115 43.4685L20.4468 49.6215L26.0562 44.3928L20.3209 38.2398ZM13.8955 48.5746C15.0461 50.6627 16.3257 52.617 17.7373 54.4321L24.3772 49.2685C23.2503 47.8193 22.2111 46.2367 21.2627 44.5154L13.8955 48.5746ZM17.7359 54.4305C19.1053 56.1931 20.568 57.8649 22.1241 59.4449L28.1171 53.5427C26.7938 52.1991 25.5477 50.7752 24.3785 49.2702L17.7359 54.4305ZM22.1467 59.4677C23.7741 61.0951 25.5236 62.6069 27.3927 64.0032L32.4267 57.2644C30.8748 56.1051 29.4315 54.8569 28.0945 53.5199L22.1467 59.4677ZM27.3949 64.0048C29.2706 65.4041 31.3091 66.7099 33.5036 67.926L37.5807 60.5687C35.6863 59.5189 33.9699 58.4156 32.4245 57.2628L27.3949 64.0048ZM38.5421 67.1949L44.0085 61.6315L38.0085 55.7363L32.5422 61.2997L38.5421 67.1949ZM44.0917 61.5443C44.0776 61.5595 44.0221 61.6155 43.9181 61.6813C43.8111 61.7488 43.6783 61.8105 43.5282 61.8519L41.2948 53.7424C39.9242 54.1198 38.7997 54.881 37.9253 55.8235L44.0917 61.5443ZM43.5158 61.8553C43.4631 61.8696 43.4339 61.8708 43.4375 61.8707C43.4424 61.8704 43.4842 61.8689 43.5692 61.8804L44.6987 53.5451C43.6098 53.3976 42.458 53.4258 41.3071 53.739L43.5158 61.8553ZM43.2918 61.8333L48.6687 62.9322L50.353 54.6911L44.9761 53.5922L43.2918 61.8333ZM48.5073 62.8959C48.4586 62.8839 48.358 62.8509 48.2363 62.7754C48.1129 62.6988 48.0146 62.6076 47.9469 62.525L54.4532 57.1939C53.4162 55.9283 52.0481 55.1043 50.5143 54.7274L48.5073 62.8959ZM47.9427 62.5198C47.8732 62.4347 47.7881 62.3007 47.7251 62.1237C47.662 61.9468 47.6435 61.7899 47.6435 61.6816H56.0549C56.0549 60.0283 55.5043 58.4808 54.4574 57.1991L47.9427 62.5198ZM47.6435 61.6816V67.9044H56.0549V61.6816H47.6435ZM47.6435 67.9044C47.6435 67.8034 47.6624 67.6079 47.7596 67.3697C47.8585 67.1274 47.998 66.9403 48.1229 66.8178L54.0115 72.8242C55.3837 71.4789 56.0549 69.7377 56.0549 67.9044H47.6435ZM48.118 66.8227C48.2463 66.6965 48.4293 66.5685 48.6524 66.4809C48.8699 66.3956 49.0401 66.382 49.1147 66.382V74.7934C50.9083 74.7934 52.6481 74.1652 54.0164 72.8194L48.118 66.8227ZM19.2303 47.2433L24.137 42.7302L18.4426 36.5393L13.536 41.0524L19.2303 47.2433ZM23.9003 42.9322C24.9351 42.113 25.5035 41.0163 25.7248 39.9496L17.4886 38.2414C17.6144 37.6348 17.9716 36.8975 18.6793 36.3373L23.9003 42.9322ZM25.7123 40.0079C25.9092 39.1217 25.9116 38.1046 25.5534 37.075L17.6088 39.8383C17.387 39.2005 17.4064 38.6094 17.5011 38.1832L25.7123 40.0079ZM25.6979 37.5964L24.5658 32.1786L16.3322 33.8991L17.4643 39.3169L25.6979 37.5964ZM24.5244 32C24.2968 31.1071 23.7899 30.016 22.7355 29.1703L17.4726 35.7318C16.7452 35.1485 16.4683 34.4493 16.3736 34.0777L24.5244 32ZM22.7355 29.1703C21.6492 28.299 20.43 28.0486 19.4626 28.0486V36.46C19.0233 36.46 18.2317 36.3407 17.4726 35.7318L22.7355 29.1703ZM19.4626 28.0486H14.2186V36.46H19.4626V28.0486ZM14.2186 28.0486C12.9767 28.0486 11.7217 28.5095 10.754 29.4772L16.7018 35.425C16.3871 35.7396 15.9877 36.0172 15.5144 36.207C15.0457 36.395 14.597 36.46 14.2186 36.46V28.0486ZM10.754 29.4772C9.78628 30.4449 9.32539 31.6999 9.32539 32.9417H17.7368C17.7368 33.3202 17.6718 33.7688 17.4838 34.2376C17.294 34.7109 17.0164 35.1103 16.7018 35.425L10.754 29.4772ZM9.32707 33.0607C9.38652 35.1618 9.713 37.3021 10.2795 39.4727L18.4183 37.3486C17.9932 35.7199 17.7745 34.2142 17.7352 32.8228L9.32707 33.0607ZM10.281 39.4786C10.8417 41.6141 11.5967 43.7404 12.5376 45.8566L20.2235 42.4391C19.4539 40.7083 18.8545 39.0099 18.4168 37.3426L10.281 39.4786ZM16.3806 48.3536H16.3831V39.9421H16.3806V48.3536ZM36.1116 69.215C38.1677 70.2329 40.3451 70.9794 42.6321 71.4604L44.3631 63.229C42.7453 62.8888 41.2426 62.3694 39.8436 61.6768L36.1116 69.215ZM42.637 71.4614C44.7605 71.9054 46.7355 72.1706 48.5248 72.2063L48.6926 63.7966C47.5788 63.7744 46.1464 63.6018 44.3582 63.228L42.637 71.4614ZM48.6087 72.2072C49.8335 72.2072 51.0823 71.7593 52.0538 70.8005L46.145 64.814C46.4622 64.5009 46.8614 64.228 47.3304 64.0424C47.7944 63.8587 48.2369 63.7957 48.6087 63.7957V72.2072ZM52.0733 70.7811C53.0485 69.8059 53.5019 68.5464 53.5019 67.314H45.0904C45.0904 66.9411 45.1539 66.4952 45.3407 66.0271C45.5295 65.5537 45.8072 65.1516 46.1255 64.8333L52.0733 70.7811ZM53.5019 67.314V62.185H45.0904V67.314H53.5019ZM53.5019 62.185C53.5019 61.2119 53.2477 59.9963 52.3802 58.9147L45.8186 64.1776C45.2134 63.423 45.0904 62.6334 45.0904 62.185H53.5019ZM52.3934 58.9313C51.5435 57.8606 50.4383 57.3461 49.5254 57.1194L47.4979 65.2828C47.1063 65.1856 46.3929 64.9011 45.8054 64.161L52.3934 58.9313ZM49.3557 57.081L44.6279 56.1124L42.9398 64.3527L47.6675 65.3213L49.3557 57.081ZM45.0931 56.2358C44.3318 55.9864 43.2125 55.8057 41.9766 56.2035L44.5535 64.2105C43.614 64.5129 42.8405 64.3492 42.4746 64.2293L45.0931 56.2358ZM41.8798 56.236C40.9273 56.5682 40.2532 57.1298 39.8417 57.537L45.7582 63.5159C45.6999 63.5736 45.5882 63.6764 45.4199 63.792C45.2521 63.9073 44.9952 64.0577 44.6503 64.178L41.8798 56.236ZM39.7965 57.5823L34.9742 62.5018L40.981 68.39L45.8033 63.4706L39.7965 57.5823Z" fill="black" mask="url(#path-2-inside-1_3534_2077)"/>
</svg>
