<svg width="101" height="100" viewBox="0 0 101 100" fill="none" xmlns="http://www.w3.org/2000/svg">
<path d="M65.5 90H35.5V95C35.5 96.3261 34.9732 97.5979 34.0355 98.5355C33.0979 99.4732 31.8261 100 30.5 100H25.5C24.1739 100 22.9021 99.4732 21.9645 98.5355C21.0268 97.5979 20.5 96.3261 20.5 95V90C17.8478 90 15.3043 88.9464 13.4289 87.0711C11.5536 85.1957 10.5 82.6522 10.5 80V10C10.5 4.5 15 0 20.5 0H80.5C83.1522 0 85.6957 1.05357 87.5711 2.92893C89.4464 4.8043 90.5 7.34784 90.5 10V80C90.5 82.6522 89.4464 85.1957 87.5711 87.0711C85.6957 88.9464 83.1522 90 80.5 90V95C80.5 96.3261 79.9732 97.5979 79.0355 98.5355C78.0979 99.4732 76.8261 100 75.5 100H70.5C69.1739 100 67.9021 99.4732 66.9645 98.5355C66.0268 97.5979 65.5 96.3261 65.5 95V90ZM20.5 25V55H45.5V25H20.5ZM55.5 25V55H80.5V25H55.5ZM25.5 10V15H75.5V10H25.5ZM28 80C29.9891 80 31.8968 79.2098 33.3033 77.8033C34.7098 76.3968 35.5 74.4891 35.5 72.5C35.5 70.5109 34.7098 68.6032 33.3033 67.1967C31.8968 65.7902 29.9891 65 28 65C26.0109 65 24.1032 65.7902 22.6967 67.1967C21.2902 68.6032 20.5 70.5109 20.5 72.5C20.5 74.4891 21.2902 76.3968 22.6967 77.8033C24.1032 79.2098 26.0109 80 28 80ZM73 80C74.9891 80 76.8968 79.2098 78.3033 77.8033C79.7098 76.3968 80.5 74.4891 80.5 72.5C80.5 70.5109 79.7098 68.6032 78.3033 67.1967C76.8968 65.7902 74.9891 65 73 65C71.0109 65 69.1032 65.7902 67.6967 67.1967C66.2902 68.6032 65.5 70.5109 65.5 72.5C65.5 74.4891 66.2902 76.3968 67.6967 77.8033C69.1032 79.2098 71.0109 80 73 80Z" fill="#D7082D"/>
</svg>
