<svg width="100" height="100" viewBox="0 0 100 100" fill="none" xmlns="http://www.w3.org/2000/svg">
<path d="M46.875 6.25C46.0462 6.25 45.2513 6.57924 44.6653 7.16529C44.0792 7.75134 43.75 8.5462 43.75 9.375V25C43.75 25.2625 43.7812 25.5188 43.8438 25.7625C38.4558 27.1337 33.6783 30.2609 30.2658 34.6501C26.8534 39.0393 25.0005 44.4403 25 50V56.25H15.625C13.1386 56.25 10.754 57.2377 8.99587 58.9959C7.23772 60.754 6.25 63.1386 6.25 65.625V90.625C6.25 91.4538 6.57924 92.2487 7.16529 92.8347C7.75134 93.4208 8.5462 93.75 9.375 93.75H90.625C91.4538 93.75 92.2487 93.4208 92.8347 92.8347C93.4208 92.2487 93.75 91.4538 93.75 90.625V65.625C93.75 63.1386 92.7623 60.754 91.0041 58.9959C89.246 57.2377 86.8614 56.25 84.375 56.25H75V50C75 43.3696 72.3661 37.0107 67.6777 32.3223C62.9893 27.6339 56.6304 25 50 25V18.75H59.375C60.2038 18.75 60.9987 18.4208 61.5847 17.8347C62.1708 17.2487 62.5 16.4538 62.5 15.625V9.375C62.5 8.5462 62.1708 7.75134 61.5847 7.16529C60.9987 6.57924 60.2038 6.25 59.375 6.25H46.875ZM59.375 87.5V73.4375C59.375 72.1943 58.8811 71.002 58.0021 70.1229C57.123 69.2439 55.9307 68.75 54.6875 68.75H45.3125C44.0693 68.75 42.877 69.2439 41.9979 70.1229C41.1189 71.002 40.625 72.1943 40.625 73.4375V87.5H12.5V65.625C12.5 64.7962 12.8292 64.0013 13.4153 63.4153C14.0013 62.8292 14.7962 62.5 15.625 62.5H28.125C28.9538 62.5 29.7487 62.1708 30.3347 61.5847C30.9208 60.9987 31.25 60.2038 31.25 59.375V50C31.25 45.0272 33.2254 40.2581 36.7417 36.7417C40.2581 33.2254 45.0272 31.25 50 31.25C54.9728 31.25 59.7419 33.2254 63.2583 36.7417C66.7746 40.2581 68.75 45.0272 68.75 50V59.375C68.75 60.2038 69.0792 60.9987 69.6653 61.5847C70.2513 62.1708 71.0462 62.5 71.875 62.5H84.375C85.2038 62.5 85.9987 62.8292 86.5847 63.4153C87.1708 64.0013 87.5 64.7962 87.5 65.625V87.5H59.375ZM28.125 68.75C28.9538 68.75 29.7487 69.0792 30.3347 69.6653C30.9208 70.2513 31.25 71.0462 31.25 71.875V78.125C31.25 78.9538 30.9208 79.7487 30.3347 80.3347C29.7487 80.9208 28.9538 81.25 28.125 81.25C27.2962 81.25 26.5013 80.9208 25.9153 80.3347C25.3292 79.7487 25 78.9538 25 78.125V71.875C25 71.0462 25.3292 70.2513 25.9153 69.6653C26.5013 69.0792 27.2962 68.75 28.125 68.75ZM75 71.875C75 71.0462 74.6708 70.2513 74.0847 69.6653C73.4987 69.0792 72.7038 68.75 71.875 68.75C71.0462 68.75 70.2513 69.0792 69.6653 69.6653C69.0792 70.2513 68.75 71.0462 68.75 71.875V78.125C68.75 78.9538 69.0792 79.7487 69.6653 80.3347C70.2513 80.9208 71.0462 81.25 71.875 81.25C72.7038 81.25 73.4987 80.9208 74.0847 80.3347C74.6708 79.7487 75 78.9538 75 78.125V71.875ZM59.375 43.75C60.2038 43.75 60.9987 44.0792 61.5847 44.6653C62.1708 45.2513 62.5 46.0462 62.5 46.875V53.125C62.5 53.9538 62.1708 54.7487 61.5847 55.3347C60.9987 55.9208 60.2038 56.25 59.375 56.25C58.5462 56.25 57.7513 55.9208 57.1653 55.3347C56.5792 54.7487 56.25 53.9538 56.25 53.125V46.875C56.25 46.0462 56.5792 45.2513 57.1653 44.6653C57.7513 44.0792 58.5462 43.75 59.375 43.75ZM40.625 43.75C41.4538 43.75 42.2487 44.0792 42.8347 44.6653C43.4208 45.2513 43.75 46.0462 43.75 46.875V53.125C43.75 53.9538 43.4208 54.7487 42.8347 55.3347C42.2487 55.9208 41.4538 56.25 40.625 56.25C39.7962 56.25 39.0013 55.9208 38.4153 55.3347C37.8292 54.7487 37.5 53.9538 37.5 53.125V46.875C37.5 46.0462 37.8292 45.2513 38.4153 44.6653C39.0013 44.0792 39.7962 43.75 40.625 43.75ZM53.125 87.5H46.875V75H53.125V87.5Z" fill="#DD3719"/>
</svg>
