<svg width="100" height="100" viewBox="0 0 100 100" fill="none" xmlns="http://www.w3.org/2000/svg">
<path d="M31.25 6.25C27.9348 6.25 24.7554 7.56696 22.4112 9.91117C20.067 12.2554 18.75 15.4348 18.75 18.75V56.5625C21.0625 57.0312 23.1875 58.0062 25 59.375V18.75C25 17.0924 25.6585 15.5027 26.8306 14.3306C28.0027 13.1585 29.5924 12.5 31.25 12.5H50V28.125C50 30.6114 50.9877 32.996 52.7459 34.7541C54.504 36.5123 56.8886 37.5 59.375 37.5H75V59.15C76.8539 57.7978 78.9912 56.8852 81.25 56.4812V33.8375C81.2478 31.3519 80.2587 28.969 78.5 27.2125L60.2938 8.99375C59.4228 8.12333 58.3889 7.43302 57.2511 6.96224C56.1133 6.49146 54.8939 6.24944 53.6625 6.25H31.25ZM73.7063 31.25H59.375C58.5462 31.25 57.7513 30.9208 57.1653 30.3347C56.5792 29.7487 56.25 28.9538 56.25 28.125V13.7938L73.7063 31.25ZM15.1688 68.75C14.5679 68.7511 13.985 68.955 13.5144 69.3286C13.0438 69.7022 12.7131 70.2236 12.5757 70.8086C12.4383 71.3935 12.5023 72.0077 12.7574 72.5517C13.0125 73.0957 13.4437 73.5378 13.9812 73.8063L20.0687 76.8562C21.8645 77.7553 23.3042 79.2342 24.1549 81.0533C25.0056 82.8725 25.2174 84.9255 24.7561 86.8801C24.2947 88.8346 23.1872 90.5762 21.6129 91.823C20.0385 93.0698 18.0895 93.7488 16.0812 93.75H15.625C13.1386 93.75 10.754 92.7623 8.99587 91.0041C7.23772 89.246 6.25 86.8614 6.25 84.375C6.25 83.5462 6.57924 82.7513 7.16529 82.1653C7.75134 81.5792 8.5462 81.25 9.375 81.25C10.2038 81.25 10.9987 81.5792 11.5847 82.1653C12.1708 82.7513 12.5 83.5462 12.5 84.375C12.5 85.2038 12.8292 85.9987 13.4153 86.5847C14.0013 87.1708 14.7962 87.5 15.625 87.5H16.0812C16.6821 87.4989 17.265 87.295 17.7356 86.9214C18.2062 86.5478 18.5369 86.0264 18.6743 85.4414C18.8117 84.8565 18.7477 84.2423 18.4926 83.6983C18.2375 83.1543 17.8063 82.7122 17.2688 82.4437L11.1813 79.3938C9.38551 78.4947 7.94577 77.0158 7.0951 75.1967C6.24442 73.3775 6.03261 71.3245 6.49394 69.3699C6.95528 67.4154 8.06276 65.6737 9.63711 64.427C11.2115 63.1802 13.1605 62.5012 15.1688 62.5H15.625C18.1114 62.5 20.496 63.4877 22.2541 65.2459C24.0123 67.004 25 69.3886 25 71.875C25 72.7038 24.6708 73.4987 24.0847 74.0847C23.4987 74.6708 22.7038 75 21.875 75C21.0462 75 20.2513 74.6708 19.6653 74.0847C19.0792 73.4987 18.75 72.7038 18.75 71.875C18.75 71.0462 18.4208 70.2513 17.8347 69.6653C17.2487 69.0792 16.4538 68.75 15.625 68.75H15.1688ZM42.0438 64.6875C41.8443 64.053 41.4477 63.4987 40.9115 63.1051C40.3754 62.7116 39.7276 62.4994 39.0625 62.4994C38.3974 62.4994 37.7496 62.7116 37.2135 63.1051C36.6773 63.4987 36.2806 64.053 36.0812 64.6875L28.2687 89.6875C28.1456 90.079 28.1008 90.4909 28.1369 90.8997C28.173 91.3085 28.2892 91.7063 28.479 92.0702C28.6688 92.434 28.9284 92.757 29.243 93.0206C29.5576 93.2841 29.921 93.4831 30.3125 93.6063C30.704 93.7294 31.1159 93.7742 31.5247 93.7381C31.9336 93.702 32.3313 93.5858 32.6952 93.396C33.059 93.2062 33.382 92.9466 33.6455 92.632C33.9091 92.3174 34.1081 91.954 34.2313 91.5625L35.5 87.5H42.625L43.8937 91.5625C44.1424 92.3532 44.6949 93.0127 45.4298 93.396C46.1648 93.7793 47.0218 93.8549 47.8125 93.6063C48.6032 93.3576 49.2627 92.8051 49.646 92.0702C50.0293 91.3352 50.1049 90.4782 49.8563 89.6875L42.0438 64.6875ZM40.6688 81.25H37.4562L39.0625 76.1L40.6688 81.25ZM59.375 71.4187C59.375 69.9437 60.5687 68.75 62.0438 68.75H62.5C63.3288 68.75 64.1237 69.0792 64.7097 69.6653C65.2958 70.2513 65.625 71.0462 65.625 71.875C65.625 72.7038 65.9542 73.4987 66.5403 74.0847C67.1263 74.6708 67.9212 75 68.75 75C69.5788 75 70.3737 74.6708 70.9597 74.0847C71.5458 73.4987 71.875 72.7038 71.875 71.875C71.875 69.3886 70.8873 67.004 69.1291 65.2459C67.371 63.4877 64.9864 62.5 62.5 62.5H62.0438C60.0355 62.5012 58.0865 63.1802 56.5121 64.427C54.9378 65.6737 53.8303 67.4154 53.3689 69.3699C52.9076 71.3245 53.1194 73.3775 53.9701 75.1967C54.8208 77.0158 56.2605 78.4947 58.0562 79.3938L64.15 82.4437C64.688 82.7125 65.1195 83.155 65.3745 83.6997C65.6295 84.2444 65.693 84.8592 65.5548 85.4445C65.4167 86.0298 65.0848 86.5512 64.6132 86.9243C64.1415 87.2974 63.5576 87.5003 62.9562 87.5H62.5C61.6712 87.5 60.8763 87.1708 60.2903 86.5847C59.7042 85.9987 59.375 85.2038 59.375 84.375C59.375 83.5462 59.0458 82.7513 58.4597 82.1653C57.8737 81.5792 57.0788 81.25 56.25 81.25C55.4212 81.25 54.6263 81.5792 54.0403 82.1653C53.4542 82.7513 53.125 83.5462 53.125 84.375C53.125 85.6061 53.3675 86.8252 53.8386 87.9627C54.3098 89.1001 55.0003 90.1336 55.8709 91.0041C56.7414 91.8747 57.7749 92.5652 58.9123 93.0364C60.0498 93.5075 61.2689 93.75 62.5 93.75H62.9562C64.9645 93.7488 66.9135 93.0698 68.4879 91.823C70.0622 90.5762 71.1697 88.8346 71.6311 86.8801C72.0924 84.9255 71.8806 82.8725 71.0299 81.0533C70.1792 79.2342 68.7395 77.7553 66.9438 76.8562L60.85 73.8063C60.4067 73.5845 60.0339 73.2437 59.7733 72.822C59.5128 72.4003 59.3749 71.9144 59.375 71.4187ZM83.9187 68.75C83.3179 68.7511 82.735 68.955 82.2644 69.3286C81.7938 69.7022 81.4631 70.2236 81.3257 70.8086C81.1883 71.3935 81.2523 72.0077 81.5074 72.5517C81.7625 73.0957 82.1937 73.5378 82.7313 73.8063L88.8188 76.8562C90.6145 77.7553 92.0542 79.2342 92.9049 81.0533C93.7556 82.8725 93.9674 84.9255 93.5061 86.8801C93.0447 88.8346 91.9372 90.5762 90.3629 91.823C88.7885 93.0698 86.8395 93.7488 84.8313 93.75H84.375C81.8886 93.75 79.504 92.7623 77.7459 91.0041C75.9877 89.246 75 86.8614 75 84.375C75 83.5462 75.3292 82.7513 75.9153 82.1653C76.5013 81.5792 77.2962 81.25 78.125 81.25C78.9538 81.25 79.7487 81.5792 80.3347 82.1653C80.9208 82.7513 81.25 83.5462 81.25 84.375C81.25 85.2038 81.5792 85.9987 82.1653 86.5847C82.7513 87.1708 83.5462 87.5 84.375 87.5H84.8313C85.4321 87.4989 86.015 87.295 86.4856 86.9214C86.9562 86.5478 87.2869 86.0264 87.4243 85.4414C87.5617 84.8565 87.4977 84.2423 87.2426 83.6983C86.9875 83.1543 86.5563 82.7122 86.0187 82.4437L79.9312 79.3938C78.1355 78.4947 76.6958 77.0158 75.8451 75.1967C74.9944 73.3775 74.7826 71.3245 75.2439 69.3699C75.7053 67.4154 76.8128 65.6737 78.3871 64.427C79.9615 63.1802 81.9105 62.5012 83.9187 62.5H84.375C86.8614 62.5 89.246 63.4877 91.0041 65.2459C92.7623 67.004 93.75 69.3886 93.75 71.875C93.75 72.7038 93.4208 73.4987 92.8347 74.0847C92.2487 74.6708 91.4538 75 90.625 75C89.7962 75 89.0013 74.6708 88.4153 74.0847C87.8292 73.4987 87.5 72.7038 87.5 71.875C87.5 71.0462 87.1708 70.2513 86.5847 69.6653C85.9987 69.0792 85.2038 68.75 84.375 68.75H83.9187Z" fill="#521A9A"/>
</svg>
