<svg width="100" height="100" viewBox="0 0 100 100" fill="none" xmlns="http://www.w3.org/2000/svg">
<path d="M41.6667 20.8333L50 12.5M33.3333 66.6667L66.6667 33.3333M50 87.5L58.3333 79.1667M68.75 79.1667C71.5127 79.1667 74.1622 78.0692 76.1157 76.1157C78.0692 74.1622 79.1667 71.5127 79.1667 68.75C79.1667 65.9873 78.0692 63.3378 76.1157 61.3843C74.1622 59.4308 71.5127 58.3333 68.75 58.3333C65.9873 58.3333 63.3378 59.4308 61.3843 61.3843C59.4308 63.3378 58.3333 65.9873 58.3333 68.75C58.3333 71.5127 59.4308 74.1622 61.3843 76.1157C63.3378 78.0692 65.9873 79.1667 68.75 79.1667ZM31.25 41.6667C34.0127 41.6667 36.6622 40.5692 38.6157 38.6157C40.5692 36.6622 41.6667 34.0127 41.6667 31.25C41.6667 28.4873 40.5692 25.8378 38.6157 23.8843C36.6622 21.9308 34.0127 20.8333 31.25 20.8333C28.4873 20.8333 25.8378 21.9308 23.8843 23.8843C21.9308 25.8378 20.8333 28.4873 20.8333 31.25C20.8333 34.0127 21.9308 36.6622 23.8843 38.6157C25.8378 40.5692 28.4873 41.6667 31.25 41.6667ZM22.9167 87.5C25.6793 87.5 28.3289 86.4025 30.2824 84.449C32.2359 82.4955 33.3333 79.846 33.3333 77.0833C33.3333 74.3207 32.2359 71.6711 30.2824 69.7176C28.3289 67.7641 25.6793 66.6667 22.9167 66.6667C20.154 66.6667 17.5045 67.7641 15.551 69.7176C13.5975 71.6711 12.5 74.3207 12.5 77.0833C12.5 79.846 13.5975 82.4955 15.551 84.449C17.5045 86.4025 20.154 87.5 22.9167 87.5ZM77.0833 33.3333C79.846 33.3333 82.4955 32.2359 84.449 30.2824C86.4025 28.3289 87.5 25.6793 87.5 22.9167C87.5 20.154 86.4025 17.5045 84.449 15.551C82.4955 13.5975 79.846 12.5 77.0833 12.5C74.3207 12.5 71.6711 13.5975 69.7176 15.551C67.7641 17.5045 66.6667 20.154 66.6667 22.9167C66.6667 25.6793 67.7641 28.3289 69.7176 30.2824C71.6711 32.2359 74.3207 33.3333 77.0833 33.3333Z" stroke="#A50F0F" stroke-width="6" stroke-linecap="round" stroke-linejoin="round"/>
</svg>
