<svg width="78" height="78" viewBox="0 0 78 78" fill="none" xmlns="http://www.w3.org/2000/svg">
<g clip-path="url(#clip0_3534_2111)">
<path d="M31.624 12.9575C32.0975 11.7759 31.2314 10.2303 30.3189 9.25529C30.6727 7.96181 30.7191 6.18789 29.7516 5.36942C28.7842 4.54985 27.0585 4.90202 25.8548 5.47594C24.7439 4.73681 23.0851 4.14333 22.012 4.81724C20.9399 5.49116 20.7393 7.25529 20.9086 8.58572C19.8689 9.42159 18.7958 10.8292 19.101 12.0651C19.4062 13.3009 21.0079 14.039 22.3151 14.2868C22.7832 15.5422 23.7797 17.0053 25.0405 17.0955C25.9336 17.1585 26.7878 16.5183 27.4392 15.7227C28.7551 17.3749 29.6848 19.1216 30.1949 20.8379C29.4151 19.664 27.8005 18.6531 24.4409 18.6531C24.4409 23.1694 27.7218 24.0912 29.8336 24.0912L33.2849 24.0933C33.2849 21.1335 32.2215 17.6694 29.7365 14.4183C30.581 14.1499 31.3317 13.6825 31.624 12.9575ZM26.9032 12.7183C26.6091 12.9033 26.2817 13.028 25.9398 13.0854C25.5978 13.1428 25.248 13.1318 24.9103 13.053C24.5726 12.9741 24.2536 12.829 23.9715 12.626C23.6895 12.4229 23.4498 12.1658 23.2663 11.8694C23.0829 11.573 22.9591 11.2431 22.9021 10.8985C22.8451 10.5539 22.8561 10.2013 22.9343 9.86099C23.0125 9.52064 23.1565 9.19916 23.358 8.91488C23.5595 8.63061 23.8146 8.38912 24.1087 8.2042C24.7027 7.83088 25.4195 7.71064 26.1014 7.86995C26.7833 8.02925 27.3746 8.45504 27.745 9.05366C28.1154 9.65227 28.2347 10.3747 28.0767 11.0619C27.9186 11.7492 27.4961 12.345 26.9021 12.7183H26.9032ZM33.0908 16.7488C34.2589 19.1075 34.8909 21.589 34.9006 24.0368C38.4576 21.4596 38.4619 16.7031 38.4619 12.1346C38.4619 12.1346 34.5037 13.2585 33.0908 16.7488Z" fill="#7E327B"/>
<rect x="18.9698" y="0.174805" width="14.0211" height="17.3913" fill="#F6BEF4"/>
</g>
<g clip-path="url(#clip1_3534_2111)">
<path fill-rule="evenodd" clip-rule="evenodd" d="M33.3443 12.7924C33.3443 16.7151 29.8173 18.4784 24.8799 18.4784C19.9425 18.4784 16.4156 16.7151 16.4156 12.8201C16.4156 8.5556 18.532 6.39496 22.7635 4.23433L21.2653 1.42167C21.1759 1.28079 21.1261 1.11811 21.1212 0.950957C21.1164 0.783807 21.1566 0.618463 21.2377 0.472554C21.3187 0.326646 21.4376 0.205644 21.5815 0.122452C21.7254 0.0392591 21.8891 -0.00300494 22.055 0.000166188H28.0362C28.1917 0.00417595 28.3436 0.0479942 28.4777 0.127497C28.6118 0.207 28.7235 0.319573 28.8025 0.454621C28.8815 0.589669 28.9251 0.74275 28.9292 0.899459C28.9333 1.05617 28.8978 1.21135 28.8259 1.3504L26.9963 4.23433C31.2265 6.36593 33.3443 8.52656 33.3443 12.7924ZM25.6985 6.4504C25.6985 6.23162 25.6122 6.02179 25.4587 5.86709C25.3052 5.71239 25.097 5.62548 24.8799 5.62548C24.6628 5.62548 24.4546 5.71239 24.3011 5.86709C24.1476 6.02179 24.0614 6.23162 24.0614 6.4504V7.27796C23.5066 7.2995 22.9787 7.52442 22.5768 7.91048C22.1749 8.29655 21.9267 8.81719 21.8788 9.37464C21.8309 9.93208 21.9866 10.488 22.3166 10.9379C22.6466 11.3879 23.1283 11.701 23.6711 11.8183L25.6002 12.2433C25.798 12.2862 25.9729 12.4014 26.0914 12.5666C26.2099 12.7318 26.2634 12.9354 26.2418 13.138C26.2202 13.3407 26.1248 13.5281 25.9742 13.6641C25.8236 13.8002 25.6283 13.8752 25.426 13.8747H24.3338C24.1645 13.875 23.9992 13.8223 23.8608 13.724C23.7224 13.6256 23.6177 13.4865 23.5611 13.3256C23.528 13.2201 23.4742 13.1224 23.4029 13.0382C23.3316 12.9541 23.2442 12.8853 23.1459 12.8359C23.0477 12.7865 22.9406 12.7575 22.831 12.7507C22.7214 12.7439 22.6115 12.7594 22.508 12.7962C22.4045 12.8331 22.3093 12.8905 22.2283 12.9652C22.1472 13.0399 22.0819 13.1302 22.0362 13.2308C21.9906 13.3314 21.9654 13.4403 21.9623 13.5509C21.9593 13.6615 21.9783 13.7716 22.0183 13.8747C22.1723 14.313 22.4455 14.6989 22.8068 14.9881C23.1681 15.2773 23.6029 15.4581 24.0614 15.51V16.3495C24.0614 16.5683 24.1476 16.7781 24.3011 16.9328C24.4546 17.0875 24.6628 17.1744 24.8799 17.1744C25.097 17.1744 25.3052 17.0875 25.4587 16.9328C25.6122 16.7781 25.6985 16.5683 25.6985 16.3495V15.51C26.2764 15.4438 26.8122 15.1731 27.2107 14.7462C27.6091 14.3192 27.8444 13.7636 27.8746 13.1782C27.9047 12.5929 27.7279 12.0157 27.3754 11.5494C27.023 11.0831 26.5179 10.758 25.9499 10.6318L24.0208 10.2068C23.8643 10.1745 23.7253 10.0845 23.6311 9.95446C23.5369 9.82442 23.4943 9.66364 23.5115 9.50356C23.5287 9.34349 23.6045 9.19564 23.7241 9.08891C23.8437 8.98219 23.9985 8.92427 24.1583 8.92649H25.426C25.5955 8.92563 25.761 8.97807 25.8995 9.07649C26.038 9.1749 26.1426 9.3144 26.1987 9.47555C26.2749 9.67671 26.4261 9.83987 26.62 9.93021C26.814 10.0206 27.0352 10.0309 27.2366 9.95906C27.438 9.88721 27.6036 9.73886 27.6979 9.54568C27.7922 9.35251 27.8079 9.12982 27.7415 8.92517C27.5878 8.48682 27.3146 8.10102 26.9532 7.81201C26.5918 7.523 26.157 7.34248 25.6985 7.29116V6.4504Z" fill="#7E327B"/>
</g>
<path d="M22.2838 25.1738H41.6975V28.4347H40.619L37.9226 43.6521H26.0587L23.3623 28.4347H22.2838V25.1738Z" fill="#7E327B"/>
<path d="M13.4733 59.6294C11.5589 59.6294 9.96352 60.2725 8.68725 61.5588C7.73004 62.845 7.0919 64.4528 7.0919 66.0606L32.6174 75.7073L54.9523 69.2762V40.3359H48.89L25.5979 49.018C24.0026 49.6611 23.0454 50.9474 23.0454 52.5551C23.0454 53.5198 23.3644 54.4845 24.0026 55.1276C24.6407 55.7707 25.917 56.4138 26.8742 56.4138H35.8081L41.5514 54.1629L42.5086 57.057L35.8081 59.6294H13.4733ZM74.0964 40.3359H61.3336V75.7073H74.0964V40.3359Z" fill="#7E327B"/>
<defs>
<clipPath id="clip0_3534_2111">
<rect width="21.5709" height="21.7391" fill="white" transform="translate(17.9695 3.43555)"/>
</clipPath>
<clipPath id="clip1_3534_2111">
<rect width="18.3352" height="18.4783" fill="white" transform="translate(16.7117)"/>
</clipPath>
</defs>
</svg>
