<svg width="170" height="171" viewBox="0 0 170 171" fill="none" xmlns="http://www.w3.org/2000/svg">
<path d="M85 0L158.612 42.75V128.25L85 171L11.3878 128.25V42.75L85 0Z" fill="#331C38"/>
<path d="M116.023 99.5202H54.3608V38H116.023L84.5558 68.3034L116.023 99.5202Z" fill="url(#paint0_radial_3534_1808)"/>
<path d="M119.167 114.29C117.838 114.29 116.668 114.609 115.671 115.26C114.871 115.776 114.232 116.464 113.727 117.324L113.703 114.696H110.194V131.698H113.849V122.19C113.849 121.269 114.021 120.456 114.378 119.744C114.723 119.031 115.217 118.479 115.857 118.086C116.497 117.693 117.234 117.496 118.096 117.496C118.859 117.496 119.525 117.656 120.066 117.976C120.62 118.295 121.025 118.761 121.308 119.35C121.591 119.952 121.727 120.667 121.727 121.49V131.698H125.382V120.972C125.407 119.658 125.136 118.503 124.631 117.496C124.143 116.52 123.388 115.702 122.453 115.138C121.517 114.573 120.423 114.29 119.167 114.29Z" fill="white"/>
<path d="M102.379 107.558V111.304H106.072V107.558H102.379ZM102.379 114.696V131.698H106.034V114.696H102.379Z" fill="white"/>
<path d="M94.6007 107.52V131.698H98.256V107.52H94.6007Z" fill="white"/>
<path d="M84.1888 110.444V113.33C84.1888 113.785 84.0782 114.13 83.8567 114.351C83.6351 114.572 83.2904 114.696 82.8227 114.696H81.0626V117.755H84.1268V126.907C84.1268 127.853 84.3231 128.702 84.7047 129.426C85.0862 130.151 85.6403 130.715 86.3541 131.108C87.068 131.501 87.919 131.712 88.8914 131.712H91.6345V128.529H89.5667C89.0374 128.529 88.6072 128.345 88.2626 127.977C87.9303 127.608 87.7711 127.117 87.7711 126.503V117.766H91.7342V114.696H87.7711V110.444L84.1888 110.444Z" fill="white"/>
<path d="M71.5347 114.29C69.8362 114.29 68.3221 114.67 66.9805 115.432C65.6615 116.174 64.5752 117.268 63.8432 118.59C63.0924 119.942 62.7229 121.478 62.7229 123.185C62.7229 124.905 63.0924 126.429 63.8432 127.78C64.5589 129.107 65.6388 130.202 66.9561 130.938C68.2977 131.7 69.8118 132.081 71.5103 132.081C73.1842 132.081 74.6866 131.7 76.0158 130.938C77.3209 130.195 78.3909 129.1 79.1044 127.78C79.8428 126.429 80.2114 124.893 80.2114 123.185C80.2114 121.465 79.8428 119.942 79.1044 118.59C78.3659 117.239 77.3451 116.194 76.0158 115.432C74.6989 114.67 73.2085 114.29 71.5347 114.29ZM71.5104 117.569C72.4581 117.569 73.3079 117.804 74.0587 118.283C74.7972 118.762 75.3751 119.426 75.7812 120.261C76.1874 121.109 76.3856 122.078 76.3856 123.196C76.3979 124.302 76.1997 125.273 75.7812 126.12C75.3751 126.968 74.7972 127.632 74.0587 128.099C73.3203 128.578 72.4594 128.812 71.4994 128.812C70.527 128.812 69.6654 128.578 68.9024 128.099C68.1516 127.619 67.5607 126.956 67.1423 126.12C66.7238 125.273 66.5135 124.302 66.5135 123.196C66.5135 122.091 66.7238 121.109 67.1423 120.261C67.5607 119.414 68.1516 118.75 68.9024 118.283C69.6531 117.804 70.5257 117.569 71.5104 117.569Z" fill="white"/>
<path d="M58.7844 108.417L48.7172 119.143V108.453H44.9999V131.698H48.7172V120.433L58.822 131.698H63.6088L52.8397 119.671L63.4116 108.417L58.7844 108.417Z" fill="white"/>
<defs>
<radialGradient id="paint0_radial_3534_1808" cx="0" cy="0" r="1" gradientUnits="userSpaceOnUse" gradientTransform="translate(113.965 40.5188) scale(70.6042 70.4795)">
<stop offset="0.003" stop-color="#E44857"/>
<stop offset="0.469" stop-color="#C711E1"/>
<stop offset="1" stop-color="#7F52FF"/>
</radialGradient>
</defs>
</svg>
