<svg width="100" height="100" viewBox="0 0 100 100" fill="none" xmlns="http://www.w3.org/2000/svg">
<g clip-path="url(#clip0_3534_2187)">
<path d="M23.7292 10.6417C24.2596 10.8968 24.7073 11.2965 25.0206 11.7948C25.3339 12.2931 25.5001 12.8698 25.5 13.4584C25.5 16.9167 26.8 18.9084 28.4292 21.3334L28.55 21.5084C29.9333 23.5667 31.75 26.2625 31.75 30.125C31.75 34.0667 29.7625 37.5417 26.7333 39.6042C27.5292 40.2709 28.2333 41.0917 28.8417 42.075C30.825 45.2834 31.75 50.1875 31.75 57.2292C31.75 64.3625 30.7917 72.9292 29.2292 79.7709C28.4542 83.1709 27.4917 86.3084 26.3458 88.6625C25.8049 89.8339 25.0883 90.9158 24.2208 91.8709C23.3625 92.75 22.0417 93.6875 20.2917 93.6875C18.5417 93.6875 17.2208 92.75 16.3667 91.8709C15.4967 90.9177 14.7799 89.8354 14.2417 88.6625C13.0917 86.3042 12.1292 83.1709 11.3542 79.7667C9.72894 72.3615 8.88405 64.8063 8.83333 57.225C8.83333 50.1834 9.75833 45.2834 11.7417 42.075C12.3075 41.1438 13.0193 40.3095 13.85 39.6042C12.3032 38.5541 11.0372 37.141 10.1627 35.4886C9.2882 33.8361 8.83177 31.9946 8.83333 30.125C8.83333 28.5917 8.83333 25.9542 10.4292 22.55C11.9917 19.2167 14.9625 15.3875 20.4208 11.0167C20.8809 10.6487 21.4355 10.4183 22.0209 10.3519C22.6063 10.2856 23.1984 10.386 23.7292 10.6417ZM15.0833 30.1209C15.0833 31.5022 15.6321 32.8311 16.6088 33.8079C17.5856 34.7846 18.9103 35.3334 20.2917 35.3334C21.673 35.3334 22.9978 34.7846 23.9745 33.8079C24.9513 32.8311 25.5 31.5064 25.5 30.125C25.5 28.2959 24.7292 27.0292 23.2417 24.8167L23.1917 24.7417C22.2375 23.325 21.1083 21.6459 20.3083 19.4917C18.0458 21.7917 16.7958 23.7 16.0917 25.2C15.0833 27.35 15.0833 28.8834 15.0833 30.1209ZM17.0583 45.3584C16.025 47.0334 15.0833 50.4667 15.0833 57.2292C15.0833 63.9 15.9917 72 17.4458 78.3792C18.1792 81.5875 19.0125 84.1917 19.8583 85.925C20.0125 86.2459 20.1583 86.5125 20.2917 86.7375C20.425 86.5125 20.5708 86.2459 20.725 85.925C21.5708 84.1917 22.4042 81.5834 23.1375 78.3792C24.5958 72.0042 25.5 63.9042 25.5 57.2292C25.5 50.4667 24.5583 47.0334 23.525 45.3584C23.2134 44.7945 22.7423 44.335 22.1708 44.0375C21.5791 43.7798 20.9365 43.6601 20.2917 43.6875C19.4583 43.6875 18.8625 43.8167 18.4125 44.0375C17.841 44.335 17.37 44.7945 17.0583 45.3584ZM42.1667 64.1584C39.9592 63.7881 37.812 63.1209 35.7833 62.175C35.9053 59.8118 35.94 57.445 35.8875 55.0792C37.7667 56.3417 39.8875 57.2709 42.1667 57.7875V45.75C42.1667 44.0924 42.8251 42.5027 43.9972 41.3306C45.1694 40.1585 46.7591 39.5 48.4167 39.5H65.0833C65.0831 36.0029 64.1049 32.5756 62.2592 29.6052C60.4135 26.6348 57.7739 24.2398 54.6386 22.6908C51.5032 21.1418 47.9972 20.5004 44.5165 20.8393C41.0359 21.1782 37.7193 22.4837 34.9417 24.6084C34.1083 22.3042 32.9208 20.5417 32.0958 19.3167L31.9292 19.0667C35.6727 16.4277 40.0693 14.8679 44.639 14.5575C49.2087 14.2471 53.7759 15.198 57.842 17.3065C61.908 19.415 65.3167 22.6 67.6959 26.5138C70.0751 30.4276 71.3333 34.9198 71.3333 39.5H85.9167C87.5743 39.5 89.164 40.1585 90.3361 41.3306C91.5082 42.5027 92.1667 44.0924 92.1667 45.75V83.25C92.1667 84.9076 91.5082 86.4974 90.3361 87.6694C89.164 88.8416 87.5743 89.5 85.9167 89.5H48.4167C46.7591 89.5 45.1694 88.8416 43.9972 87.6694C42.8251 86.4974 42.1667 84.9076 42.1667 83.25V64.1542V64.1584ZM48.4167 64.4209V83.2542H85.9167V45.7542H70.5417C69.2435 50.7751 66.417 55.2685 62.4533 58.6127C58.4896 61.9569 53.5845 63.9865 48.4167 64.4209ZM64.0167 45.7542H48.4167V58.1417C51.9175 57.7492 55.2371 56.3793 57.9959 54.1886C60.7547 51.998 62.8412 49.075 64.0167 45.7542Z" fill="#0C91BB"/>
</g>
<defs>
<clipPath id="clip0_3534_2187">
<rect width="100" height="100" fill="white"/>
</clipPath>
</defs>
</svg>
