<svg width="100" height="100" viewBox="0 0 100 100" fill="none" xmlns="http://www.w3.org/2000/svg">
<path d="M74.5833 72.4585C73.5 69.1252 70.375 66.6668 66.6666 66.6668H62.5V54.1668C62.5 53.0618 62.061 52.002 61.2796 51.2206C60.4982 50.4392 59.4384 50.0002 58.3333 50.0002H33.3333V41.6668H41.6666C42.7717 41.6668 43.8315 41.2278 44.6129 40.4464C45.3943 39.665 45.8333 38.6052 45.8333 37.5002V29.1668H54.1666C56.3768 29.1668 58.4964 28.2889 60.0592 26.7261C61.622 25.1633 62.5 23.0436 62.5 20.8335V19.1252C67.4853 21.135 71.9093 24.323 75.3934 28.4161C78.8775 32.5093 81.3179 37.3858 82.5056 42.6281C83.6933 47.8705 83.593 53.3226 82.2133 58.5177C80.8336 63.7128 78.2156 68.4962 74.5833 72.4585ZM45.8333 83.0418C29.375 81.0002 16.6666 67.0002 16.6666 50.0002C16.6666 47.4168 17 44.9168 17.5416 42.5418L37.5 62.5002V66.6668C37.5 68.877 38.378 70.9966 39.9408 72.5594C41.5036 74.1222 43.6232 75.0002 45.8333 75.0002M50 8.3335C44.5282 8.3335 39.1101 9.41124 34.0548 11.5052C28.9996 13.5991 24.4063 16.6683 20.5372 20.5374C12.7232 28.3514 8.33331 38.9495 8.33331 50.0002C8.33331 61.0509 12.7232 71.6489 20.5372 79.463C24.4063 83.3321 28.9996 86.4012 34.0548 88.4952C39.1101 90.5891 44.5282 91.6668 50 91.6668C61.0507 91.6668 71.6488 87.277 79.4628 79.463C87.2768 71.6489 91.6667 61.0509 91.6667 50.0002C91.6667 44.5284 90.5889 39.1103 88.495 34.055C86.401 28.9998 83.3319 24.4065 79.4628 20.5374C75.5937 16.6683 71.0004 13.5991 65.9451 11.5052C60.8899 9.41124 55.4717 8.3335 50 8.3335Z" fill="#1155AE"/>
</svg>
