<svg width="100" height="100" viewBox="0 0 100 100" fill="none" xmlns="http://www.w3.org/2000/svg">
<path d="M50 12.5C44.7083 12.5 40 15.8333 38.25 20.8333H12.5V29.1667H20.625L8.33333 58.3333C6.375 66.6667 12.5 70.8333 22.9167 70.8333C33.3333 70.8333 39.8333 66.6667 37.5 58.3333L25.2083 29.1667H38.2083C39.5833 32.7083 42.2917 35.4167 45.8333 36.7917V83.3333H8.33333V91.6667H91.6667V83.3333H54.1667V36.75C57.7083 35.4167 60.4167 32.7083 61.75 29.1667H74.7917L62.5 58.3333C60.5417 66.6667 66.6667 70.8333 77.0833 70.8333C87.5 70.8333 94 66.6667 91.6667 58.3333L79.375 29.1667H87.5V20.8333H61.7917C60 15.8333 55.2917 12.5 50 12.5ZM50 20.8333C51.1051 20.8333 52.1649 21.2723 52.9463 22.0537C53.7277 22.8351 54.1667 23.8949 54.1667 25C54.1667 26.1051 53.7277 27.1649 52.9463 27.9463C52.1649 28.7277 51.1051 29.1667 50 29.1667C48.8949 29.1667 47.8351 28.7277 47.0537 27.9463C46.2723 27.1649 45.8333 26.1051 45.8333 25C45.8333 23.8949 46.2723 22.8351 47.0537 22.0537C47.8351 21.2723 48.8949 20.8333 50 20.8333ZM22.9167 42.7083L29.1667 58.3333H16.6667L22.9167 42.7083ZM77.0833 42.7083L83.3333 58.3333H70.8333L77.0833 42.7083Z" fill="#E89C2D"/>
</svg>
