<svg width="61" height="55" viewBox="0 0 61 55" fill="none" xmlns="http://www.w3.org/2000/svg">
<path d="M55.4863 38.1786C55.4844 38.1762 55.4826 38.1744 55.4806 38.1721C55.5692 37.8722 55.6607 37.5741 55.7383 37.2667C59.0636 24.0924 50.9477 8.51687 37.2139 0.315918C43.2323 8.42887 45.8934 18.2555 43.5291 26.8491C43.3183 27.6156 43.0648 28.3513 42.7846 29.0663C42.4805 28.8676 42.0974 28.6421 41.5829 28.36C41.5829 28.36 27.9214 19.9723 13.1146 5.13655C12.726 4.74713 21.0102 16.9104 30.4117 26.7874C25.9823 24.3155 13.6381 15.3845 5.82346 8.27232C6.78357 9.86448 7.92552 11.3976 9.18079 12.8736C15.7067 21.1033 24.2174 31.2574 34.4135 39.0545C27.2496 43.414 17.1269 43.753 7.04811 39.0591C4.55524 37.8974 2.2117 36.4957 0.0423279 34.9032C4.30864 41.6889 10.8794 47.5435 18.8765 50.9614C28.4135 55.0368 37.8973 54.7605 44.9608 51.0282L44.9553 51.0362C44.9876 51.016 45.0286 50.9938 45.062 50.9733C45.3521 50.8182 45.64 50.6604 45.9215 50.4936C49.3153 48.7419 56.0186 46.9648 59.6166 53.9261C60.4978 55.6297 62.3702 46.6013 55.4863 38.1786Z" fill="white"/>
</svg>
