<svg width="170" height="171" viewBox="0 0 170 171" fill="none" xmlns="http://www.w3.org/2000/svg">
<path d="M85 0L158.612 42.75V128.25L85 171L11.3878 128.25V42.75L85 0Z" fill="#F05138"/>
<path d="M125.115 43.067C125.11 42.2657 125.101 41.4649 125.079 40.6627C125.032 38.9177 124.928 37.1569 124.616 35.4306C124.3 33.6775 123.782 32.0474 122.967 30.4548C122.166 28.8908 121.12 27.4596 119.872 26.2185C118.624 24.9774 117.185 23.9371 115.611 23.1408C114.011 22.331 112.372 21.8167 110.61 21.502C108.873 21.1909 107.102 21.0884 105.346 21.0412C104.54 21.0195 103.734 21.0103 102.928 21.0054C101.972 21 101.014 21 100.058 21H78.8488H70.0625C69.1051 21 68.1487 21 67.1923 21.0055C66.386 21.0105 65.5795 21.0196 64.7744 21.0413C64.3354 21.0531 63.8955 21.0684 63.4553 21.0895C62.1349 21.1528 60.8124 21.2688 59.5104 21.5021C58.1892 21.7382 56.9365 22.0864 55.7178 22.5875C55.3116 22.7543 54.9091 22.9384 54.509 23.1408C53.3288 23.738 52.224 24.4725 51.2191 25.3259C50.8841 25.6104 50.5602 25.9081 50.2483 26.2184C48.9999 27.4595 47.9536 28.8907 47.1532 30.4547C46.3379 32.0472 45.8212 33.6774 45.5045 35.4305C45.1928 37.1568 45.0892 38.9176 45.042 40.6626C45.0199 41.4647 45.0106 42.2656 45.0053 43.0668C44.9992 44.0185 45.0001 44.9702 45.0001 45.9216V58.9093V75.7479C45.0001 76.7002 44.9991 77.651 45.0053 78.6033C45.0106 79.4045 45.0199 80.2054 45.042 81.0062C45.0892 82.7521 45.1927 84.5133 45.5045 86.2388C45.8212 87.9914 46.3379 89.623 47.1532 91.2152C47.9536 92.7796 48.9999 94.2104 50.2483 95.4509C51.4958 96.6926 52.9355 97.7327 54.5091 98.5296C56.1094 99.3395 57.7489 99.8532 59.5108 100.168C61.2467 100.479 63.0188 100.582 64.7745 100.629C65.5796 100.65 66.3861 100.659 67.1924 100.664C68.1489 100.671 69.1052 100.67 70.0626 100.67H100.058C101.014 100.67 101.972 100.671 102.928 100.664C103.734 100.659 104.54 100.65 105.346 100.629C107.102 100.582 108.873 100.478 110.61 100.168C112.371 99.8532 114.011 99.3394 115.611 98.5296C117.185 97.7329 118.624 96.6926 119.872 95.4509C121.12 94.2102 122.166 92.7796 122.967 91.2152C123.782 89.623 124.299 87.9915 124.616 86.2388C124.928 84.5133 125.032 82.7521 125.078 81.0062C125.101 80.2054 125.11 79.4047 125.114 78.6033C125.121 77.651 125.12 76.7002 125.12 75.7479V45.9216C125.12 44.9702 125.121 44.0185 125.115 43.067Z" fill="#F05138"/>
<path d="M108.486 70.1786C108.484 70.1762 108.483 70.1744 108.481 70.1721C108.569 69.8722 108.661 69.5741 108.738 69.2667C112.064 56.0924 103.948 40.5169 90.2139 32.3159C96.2323 40.4289 98.8934 50.2555 96.5291 58.8491C96.3183 59.6156 96.0648 60.3513 95.7846 61.0663C95.4805 60.8676 95.0974 60.6421 94.5829 60.36C94.5829 60.36 80.9214 51.9723 66.1146 37.1365C65.726 36.7471 74.0102 48.9104 83.4117 58.7874C78.9823 56.3155 66.6381 47.3845 58.8235 40.2723C59.7836 41.8645 60.9255 43.3976 62.1808 44.8736C68.7067 53.1033 77.2174 63.2574 87.4135 71.0545C80.2496 75.414 70.1269 75.753 60.0481 71.0591C57.5552 69.8974 55.2117 68.4957 53.0423 66.9032C57.3086 73.6889 63.8794 79.5435 71.8765 82.9614C81.4135 87.0368 90.8973 86.7605 97.9608 83.0282L97.9553 83.0362C97.9876 83.016 98.0286 82.9938 98.062 82.9733C98.3521 82.8182 98.64 82.6604 98.9215 82.4936C102.315 80.7419 109.019 78.9648 112.617 85.9261C113.498 87.6297 115.37 78.6013 108.486 70.1786Z" fill="white"/>
<path d="M53.187 126.455C53.4718 128.969 55.8833 130.617 59.2324 130.617C62.4145 130.617 64.7086 128.969 64.7086 126.688C64.7086 124.723 63.3188 123.524 60.1199 122.725L57.022 121.942C52.5674 120.843 50.5577 118.844 50.5577 115.548C50.5577 111.484 54.1247 108.67 59.1992 108.67C64.1223 108.67 67.6224 111.501 67.7397 115.581H64.4743C64.2229 113.083 62.1798 111.551 59.1155 111.551C56.084 111.551 53.974 113.099 53.974 115.364C53.974 117.129 55.2805 118.179 58.4958 118.995L61.0747 119.66C66.0652 120.876 68.1082 122.808 68.1082 126.288C68.1082 130.718 64.5744 133.499 58.9476 133.499C53.7229 133.499 50.1559 130.734 49.8879 126.455L53.187 126.455Z" fill="white"/>
<path d="M88.8517 133.099H85.5691L81.7342 119.81H81.6673L77.8491 133.099H74.5669L69.7103 115.697H72.892L76.2747 129.668H76.342L80.1601 115.697H83.2413L87.093 129.668H87.1603L90.5431 115.697H93.6912L88.8517 133.099Z" fill="white"/>
<path d="M95.8107 111.018C95.8107 109.969 96.6818 109.12 97.7368 109.12C98.8086 109.12 99.6794 109.969 99.6794 111.018C99.6794 112.067 98.8086 112.933 97.7368 112.933C96.6818 112.933 95.8107 112.067 95.8107 111.018ZM96.1459 115.697H99.3444V133.099H96.1459V115.697Z" fill="white"/>
<path d="M120.232 118.262V115.697H116.849V111.534H113.667V115.697H111.072H107.553V114.165C107.57 112.616 108.173 111.967 109.613 111.967C110.082 111.967 110.551 112.017 110.936 112.084V109.586C110.367 109.502 109.847 109.453 109.245 109.453C105.828 109.453 104.388 110.868 104.388 114.115V115.697H101.943V118.262H104.388V133.099H107.57V118.262H111.072H113.667V128.537C113.667 131.9 114.957 133.199 118.306 133.199C119.026 133.199 119.847 133.149 120.215 133.066V130.468C119.998 130.502 119.361 130.551 119.01 130.551C117.519 130.551 116.85 129.852 116.85 128.287V118.262H120.232Z" fill="white"/>
</svg>
